<?xml version="1.0" encoding="UTF-8"?>
<svg width="205px" height="42px" viewBox="0 0 205 42" version="1.1" xmlns="http://www.w3.org/2000/svg" xmlns:xlink="http://www.w3.org/1999/xlink">
    <!-- Generator: Sketch 51 (57462) - http://www.bohemiancoding.com/sketch -->
    <title>Group</title>
    <desc>Created with Sketch.</desc>
    <defs></defs>
    <g id="Symbols" stroke="none" stroke-width="1" fill="none" fill-rule="evenodd">
        <g id="Logo/Echo/Dark">
            <g id="Group">
                <polygon id="Fill-1" fill="#FFA838" points="88.9974998 0 88.9974998 13.4289492 82 20.4393319 88.9974998 27.4503918 88.9974998 42 205 42 205 0"></polygon>
                <g id="Group-6" transform="translate(0.000000, 7.000000)" fill="#1D1D1B">
                    <path d="M116.977989,22.1133333 L102.28994,22.1133333 L102.28994,14.2873333 L113.194909,14.2873333 L113.194909,11.5573333 L102.28994,11.5573333 L102.28994,4.56866667 L116.644447,4.56866667 L116.644447,1.87466667 L99.1005783,1.87466667 L99.1005783,24.8066667 L116.977989,24.8066667 L116.977989,22.1133333 Z M139.232196,16.7626667 C138.379661,20.4026667 135.968789,22.514 131.739402,22.514 C126.992382,22.514 123.505482,18.9826667 123.505482,13.3406667 C123.505482,7.69866667 126.955699,4.168 131.851489,4.168 C135.634568,4.168 138.04544,6.20666667 139.010061,9.228 L141.717792,7.48066667 C140.196816,3.768 136.783961,1.438 131.851489,1.438 C125.249271,1.438 120.130668,6.27933333 120.130668,13.3406667 C120.130668,20.4026667 125.249271,25.244 131.739402,25.244 C137.229589,25.244 140.790533,22.514 142.125378,18.2913333 L139.232196,16.7626667 Z M150.173847,24.8066667 L150.173847,14.2873333 L164.490313,14.2873333 L164.490313,24.8066667 L167.754399,24.8066667 L167.754399,1.87466667 L164.490313,1.87466667 L164.490313,11.5573333 L150.173847,11.5573333 L150.173847,1.87466667 L146.909761,1.87466667 L146.909761,24.8066667 L150.173847,24.8066667 Z M196.536778,13.3406667 C196.536778,6.27933333 191.49154,1.438 184.667868,1.438 C177.87952,1.438 172.83564,6.27933333 172.83564,13.3406667 C172.83564,20.4026667 177.87952,25.244 184.667868,25.244 C191.49154,25.244 196.536778,20.4026667 196.536778,13.3406667 Z M193.160606,13.3406667 C193.160606,18.9466667 189.711068,22.4773333 184.667868,22.4773333 C179.623309,22.4773333 176.210454,18.9466667 176.210454,13.3406667 C176.210454,7.73533333 179.623309,4.20466667 184.667868,4.20466667 C189.711068,4.20466667 193.160606,7.73533333 193.160606,13.3406667 Z" id="Fill-2"></path>
                    <path d="M79.3823728,4.5778 C77.2140141,2.01846667 73.8521072,0.4338 69.3340141,0.4338 C61.6116141,0.4338 55.576621,5.94246667 55.576621,13.9764667 C55.576621,22.0111333 61.6116141,27.5191333 69.2918969,27.5191333 C74.0470693,27.5191333 77.4898141,25.8118 79.6316797,23.0578 L75.4152003,18.8924667 C73.9200383,20.8298 72.3263762,22.0111333 69.2491003,22.0111333 C65.0292245,22.0111333 62.2019348,18.8631333 62.2019348,13.9764667 C62.2019348,9.0898 64.9871072,5.94246667 69.2918969,5.94246667 C72.1259797,5.94246667 74.1591555,7.09446667 75.3547417,8.50313333 L79.3823728,4.5778 Z M43.2124934,6.48046667 L53.4666831,6.48046667 L53.4666831,0.931133333 L26.6692486,0.931133333 L26.6692486,6.48046667 L36.7977659,6.48046667 L36.7977659,27.0218 L43.2124934,27.0218 L43.2124934,6.48046667 Z M17.1752072,13.4798 C20.5513797,13.1071333 23.1674038,10.9944667 23.1674038,8.0958 C23.1674038,3.74713333 20.1716452,0.931133333 13.418621,0.931133333 L0.000203793103,0.931133333 L0.000203793103,27.0218 L14.2215659,27.0218 C20.4250279,27.0218 23.9696693,24.3711333 23.9696693,19.8571333 C23.9696693,16.1298 20.7626452,13.9764667 17.1752072,13.4798 Z M16.710559,8.84113333 C16.710559,10.3738 15.6141521,11.6158 12.8710969,11.6158 L6.2457831,11.6158 L6.2457831,5.94246667 L12.8710969,5.94246667 C15.6141521,5.94246667 16.710559,7.2258 16.710559,8.84113333 Z M17.5542624,19.0291333 C17.5542624,20.7684667 16.2472693,21.9691333 13.418621,21.9691333 L6.2457831,21.9691333 L6.2457831,16.0884667 L13.418621,16.0884667 C16.2472693,16.0884667 17.5542624,17.3311333 17.5542624,19.0291333 Z" id="Fill-4"></path>
                </g>
            </g>
        </g>
    </g>
</svg>