<svg xmlns="http://www.w3.org/2000/svg" viewBox="0 0 130 63" width="130" height="63">
	<style>
		tspan { white-space:pre }
		.shp0 { fill: #60605f } 
		.shp1 { fill: #d48527 } 
	</style>
	<g id="Layer">
		<path id="Layer" class="shp0" d="M9.25 12.4L11.94 12.4L11.94 16.64L13.05 16.64L15.32 12.4L18.21 12.4L15.24 17.66L15.24 17.69L18.38 23.39L15.37 23.39L13.05 18.93L11.94 18.93L11.94 23.39L9.25 23.39L9.25 12.4L9.25 12.4Z" />
		<path id="Layer" class="shp0" d="M19.89 12.4L22.58 12.4L22.58 21.08L27.07 21.08L27.07 23.39L19.89 23.39L19.89 12.4Z" />
		<path id="Layer" class="shp0" d="M28.55 12.4L31.24 12.4L31.24 23.39L28.55 23.39L28.55 12.4Z" />
		<path id="Layer" class="shp0" d="M34.42 19.96C34.42 19.96 35.66 21.1 37.05 21.1C37.6 21.1 38.2 20.88 38.2 20.22C38.2 18.91 33.25 18.96 33.25 15.58C33.25 13.55 34.96 12.21 37.14 12.21C39.51 12.21 40.68 13.45 40.68 13.45L39.54 15.65C39.54 15.65 38.43 14.68 37.11 14.68C36.56 14.68 35.94 14.93 35.94 15.54C35.94 16.92 40.89 16.68 40.89 20.15C40.89 21.98 39.49 23.56 37.02 23.56C34.43 23.57 33 22 33 22L34.42 19.96Z" />
		<path id="Layer" class="shp0" d="M47.75 12.21C50.47 12.21 51.87 13.76 51.87 13.76L50.62 15.79C50.62 15.79 49.39 14.67 47.87 14.67C45.76 14.67 44.77 16.22 44.77 17.81C44.77 19.44 45.85 21.11 47.87 21.11C49.53 21.11 50.79 19.76 50.79 19.76L52.17 21.73C52.17 21.73 50.62 23.57 47.74 23.57C44.3 23.57 41.98 21.13 41.98 17.87C41.98 14.67 44.44 12.21 47.75 12.21Z" />
		<path id="Layer" class="shp0" d="M53.81 12.4L56.5 12.4L56.5 16.8L60.5 16.8L60.5 12.4L63.19 12.4L63.19 23.39L60.5 23.39L60.5 19.09L56.5 19.09L56.5 23.39L53.81 23.39L53.81 12.4Z" />
		<path id="Layer" class="shp0" d="M65.77 12.4L72.66 12.4L72.66 14.71L68.46 14.71L68.46 16.71L71.81 16.71L71.81 19L68.46 19L68.46 21.07L72.87 21.07L72.87 23.38L65.77 23.38L65.77 12.4Z" />
		<path id="Layer" class="shp0" d="M74.81 12.4L81.7 12.4L81.7 14.71L77.5 14.71L77.5 16.71L80.85 16.71L80.85 19L77.5 19L77.5 21.07L81.91 21.07L81.91 23.38L74.81 23.38L74.81 12.4Z" />
		<path id="Layer" class="shp1" d="M94.41 12.4L101.14 12.4L101.14 14.71L97.1 14.71L97.1 17.02L100.45 17.02L100.45 19.33L97.1 19.33L97.1 23.4L94.41 23.4L94.41 12.4Z" />
		<path id="Layer" fill-rule="evenodd" class="shp1" d="M108.22 12.4C109.34 12.4 109.88 12.48 110.36 12.66C111.61 13.14 112.39 14.26 112.39 15.86C112.39 17.03 111.84 18.3 110.75 18.86L110.75 18.89C110.75 18.89 110.9 19.09 111.17 19.55L113.31 23.39L110.31 23.39L108.36 19.69L107.1 19.69L107.1 23.39L104.41 23.39L104.41 12.4L108.22 12.4ZM108.24 17.38C109.1 17.38 109.64 16.9 109.64 16.03C109.64 15.2 109.33 14.71 107.98 14.71L107.07 14.71L107.07 17.38L108.24 17.38Z" />
		<path id="Layer" class="shp1" d="M116.41 12.4L123.3 12.4L123.3 14.71L119.1 14.71L119.1 16.71L122.45 16.71L122.45 19L119.1 19L119.1 21.07L123.51 21.07L123.51 23.38L116.41 23.38L116.41 12.4Z" />
		<path id="Layer" class="shp1" d="M126.98 12.4L129.67 12.4L129.67 23.39L126.98 23.39L126.98 12.4Z" />
	</g>
	<path id="Layer" class="shp0" d="M86.96 27.11L86.96 33.53L2.8 33.53L2.8 2.24L86.96 2.24L86.96 8.67L89.42 8.67L89.42 -0.22L0.34 -0.22L0.34 35.99L89.42 35.99L89.42 27.11L86.96 27.11Z" />
	<g id="Layer">
		<path id="Layer" class="shp0" d="M2.81 44.6L3.72 44.6L3.72 51.11L2.81 51.11L2.81 44.6Z" />
		<path id="Layer" class="shp0" d="M5.3 46.45L6.17 46.45L6.17 47.07C6.17 47.25 6.15 47.41 6.15 47.41L6.17 47.41C6.35 47 6.91 46.34 7.92 46.34C9.02 46.34 9.52 46.94 9.52 48.13L9.52 51.12L8.63 51.12L8.63 48.34C8.63 47.69 8.49 47.17 7.75 47.17C7.04 47.17 6.47 47.64 6.28 48.31C6.22 48.49 6.21 48.71 6.21 48.94L6.21 51.12L5.3 51.12L5.3 46.45Z" />
		<path id="Layer" class="shp0" d="M10.87 44.6L11.77 44.6L11.77 45.51L10.87 45.51L10.87 44.6ZM10.88 46.45L11.77 46.45L11.77 51.11L10.88 51.11L10.88 46.45Z" />
		<path id="Layer" class="shp0" d="M13.35 47.23L12.74 47.23L12.74 46.51L13.38 46.51L13.38 45.16L14.25 45.16L14.25 46.51L15.37 46.51L15.37 47.23L14.25 47.23L14.25 49.3C14.25 50.23 14.9 50.35 15.25 50.35C15.38 50.35 15.46 50.33 15.46 50.33L15.46 51.12C15.46 51.12 15.33 51.14 15.15 51.14C14.55 51.14 13.36 50.96 13.36 49.4L13.36 47.23L13.35 47.23Z" />
		<path id="Layer" class="shp0" d="M16.39 44.6L17.29 44.6L17.29 45.51L16.39 45.51L16.39 44.6ZM16.39 46.45L17.28 46.45L17.28 51.11L16.39 51.11L16.39 46.45Z" />
		<path id="Layer" fill-rule="evenodd" class="shp0" d="M21.16 48.2L21.36 48.2L21.36 48.12C21.36 47.35 20.93 47.1 20.34 47.1C19.62 47.1 19.04 47.55 19.04 47.55L18.67 46.9C18.67 46.9 19.34 46.35 20.41 46.35C21.59 46.35 22.25 47 22.25 48.17L22.25 51.12L21.42 51.12L21.42 50.68C21.42 50.47 21.44 50.31 21.44 50.31L21.42 50.31C21.42 50.31 21.04 51.23 19.93 51.23C19.13 51.23 18.35 50.74 18.35 49.81C18.34 48.26 20.37 48.2 21.16 48.2ZM20.12 50.5C20.88 50.5 21.36 49.71 21.36 49.02L21.36 48.87L21.13 48.87C20.46 48.87 19.24 48.92 19.24 49.75C19.25 50.13 19.54 50.5 20.12 50.5Z" />
		<path id="Layer" class="shp0" d="M23.71 47.23L23.1 47.23L23.1 46.51L23.74 46.51L23.74 45.16L24.61 45.16L24.61 46.51L25.73 46.51L25.73 47.23L24.61 47.23L24.61 49.3C24.61 50.23 25.26 50.35 25.61 50.35C25.74 50.35 25.82 50.33 25.82 50.33L25.82 51.12C25.82 51.12 25.69 51.14 25.51 51.14C24.91 51.14 23.72 50.96 23.72 49.4L23.72 47.23L23.71 47.23Z" />
		<path id="Layer" class="shp0" d="M26.75 44.6L27.65 44.6L27.65 45.51L26.75 45.51L26.75 44.6ZM26.75 46.45L27.64 46.45L27.64 51.11L26.75 51.11L26.75 46.45Z" />
		<path id="Layer" class="shp0" d="M28.44 46.45L29.39 46.45L30.52 49.6C30.61 49.86 30.67 50.24 30.68 50.24L30.7 50.24C30.71 50.24 30.77 49.86 30.87 49.6L32 46.45L32.94 46.45L31.22 51.11L30.19 51.11L28.44 46.45Z" />
		<path id="Layer" fill-rule="evenodd" class="shp0" d="M35.63 46.34C36.95 46.34 37.65 47.32 37.65 48.52C37.65 48.64 37.62 48.91 37.62 48.91L34.22 48.91C34.27 49.93 34.99 50.45 35.82 50.45C36.62 50.45 37.2 49.91 37.2 49.91L37.57 50.56C37.57 50.56 36.88 51.22 35.76 51.22C34.29 51.22 33.29 50.16 33.29 48.78C33.3 47.29 34.3 46.34 35.63 46.34ZM36.73 48.23C36.7 47.43 36.2 47.04 35.61 47.04C34.93 47.04 34.38 47.46 34.25 48.23L36.73 48.23Z" />
		<path id="Layer" class="shp0" d="M40.66 50.59L43.01 47.64C43.21 47.39 43.4 47.21 43.4 47.21L43.4 47.19C43.4 47.19 43.25 47.21 42.95 47.21L40.77 47.21L40.77 46.44L44.61 46.44L44.61 46.96L42.26 49.92C42.07 50.16 41.86 50.34 41.86 50.34L41.86 50.36C41.86 50.36 42.02 50.34 42.32 50.34L44.69 50.34L44.69 51.11L40.66 51.11L40.66 50.59L40.66 50.59Z" />
		<path id="Layer" class="shp0" d="M45.58 46.45L46.47 46.45L46.47 49.23C46.47 49.88 46.6 50.39 47.35 50.39C48.3 50.39 48.86 49.55 48.86 48.63L48.86 46.45L49.75 46.45L49.75 51.11L48.88 51.11L48.88 50.49C48.88 50.3 48.9 50.15 48.9 50.15L48.88 50.15C48.69 50.61 48.08 51.22 47.17 51.22C46.12 51.22 45.58 50.67 45.58 49.43L45.58 46.45Z" />
		<path id="Layer" class="shp0" d="M51.16 46.45L52.03 46.45L52.03 47.26C52.03 47.45 52.01 47.61 52.01 47.61L52.03 47.61C52.24 46.93 52.79 46.39 53.5 46.39C53.62 46.39 53.73 46.41 53.73 46.41L53.73 47.29C53.73 47.29 53.61 47.26 53.47 47.26C52.9 47.26 52.37 47.67 52.16 48.36C52.08 48.63 52.05 48.91 52.05 49.2L52.05 51.11L51.16 51.11L51.16 46.45Z" />
		<path id="Layer" fill-rule="evenodd" class="shp0" d="M59.35 44.6C60.45 44.6 61.24 45.21 61.24 46.26C61.24 46.9 60.93 47.4 60.43 47.66L60.43 47.68C61.11 47.88 61.5 48.53 61.5 49.26C61.5 50.49 60.55 51.11 59.41 51.11L57.08 51.11L57.08 44.6L59.35 44.6ZM59.34 47.34C59.93 47.34 60.3 46.93 60.3 46.35C60.3 45.78 59.95 45.39 59.32 45.39L57.97 45.39L57.97 47.33L59.34 47.33L59.34 47.34ZM59.45 50.32C60.15 50.32 60.57 49.88 60.57 49.21C60.57 48.54 60.13 48.09 59.45 48.09L57.99 48.09L57.99 50.31L59.45 50.31L59.45 50.32Z" />
		<path id="Layer" fill-rule="evenodd" class="shp0" d="M64.79 46.34C66.11 46.34 66.81 47.32 66.81 48.52C66.81 48.64 66.78 48.91 66.78 48.91L63.38 48.91C63.43 49.93 64.15 50.45 64.98 50.45C65.78 50.45 66.36 49.91 66.36 49.91L66.73 50.56C66.73 50.56 66.04 51.22 64.92 51.22C63.45 51.22 62.45 50.16 62.45 48.78C62.46 47.29 63.46 46.34 64.79 46.34ZM65.89 48.23C65.86 47.43 65.36 47.04 64.77 47.04C64.09 47.04 63.53 47.46 63.41 48.23L65.89 48.23Z" />
		<path id="Layer" class="shp0" d="M67.95 46.45L68.82 46.45L68.82 47.26C68.82 47.45 68.8 47.61 68.8 47.61L68.82 47.61C69.03 46.93 69.58 46.39 70.29 46.39C70.41 46.39 70.52 46.41 70.52 46.41L70.52 47.29C70.52 47.29 70.4 47.26 70.26 47.26C69.69 47.26 69.16 47.67 68.95 48.36C68.87 48.63 68.84 48.91 68.84 49.2L68.84 51.11L67.95 51.11L67.95 46.45Z" />
		<path id="Layer" class="shp0" d="M71.33 46.45L72.22 46.45L72.22 49.23C72.22 49.88 72.35 50.39 73.1 50.39C74.05 50.39 74.61 49.55 74.61 48.63L74.61 46.45L75.5 46.45L75.5 51.11L74.63 51.11L74.63 50.49C74.63 50.3 74.65 50.15 74.65 50.15L74.63 50.15C74.44 50.61 73.83 51.22 72.92 51.22C71.87 51.22 71.33 50.67 71.33 49.43L71.33 46.45Z" />
		<path id="Layer" class="shp0" d="M77.14 47.23L76.56 47.23L76.56 46.51L77.14 46.51L77.14 46.29C77.14 44.75 78.3 44.56 78.89 44.56C79.09 44.56 79.23 44.59 79.23 44.59L79.23 45.36C79.23 45.36 79.14 45.34 79 45.34C78.66 45.34 78.02 45.45 78.02 46.32L78.02 46.52L79.13 46.52L79.13 47.24L78.02 47.24L78.02 51.12L77.14 51.12L77.14 47.23Z" />
		<path id="Layer" class="shp0" d="M80.12 49.9C80.12 49.9 80.65 50.44 81.46 50.44C81.85 50.44 82.23 50.24 82.23 49.86C82.23 49 79.83 49.18 79.83 47.66C79.83 46.81 80.59 46.33 81.52 46.33C82.54 46.33 83.02 46.85 83.02 46.85L82.66 47.52C82.66 47.52 82.25 47.1 81.51 47.1C81.12 47.1 80.74 47.27 80.74 47.67C80.74 48.51 83.14 48.32 83.14 49.85C83.14 50.62 82.48 51.2 81.45 51.2C80.31 51.2 79.68 50.52 79.68 50.52L80.12 49.9Z" />
		<path id="Layer" class="shp0" d="M84.04 48.09L86.73 48.09L86.73 48.88L84.04 48.88L84.04 48.09Z" />
		<path id="Layer" class="shp0" d="M2.56 57.95L3.45 57.95L3.45 60.73C3.45 61.38 3.58 61.89 4.33 61.89C5.28 61.89 5.84 61.05 5.84 60.13L5.84 57.95L6.73 57.95L6.73 62.61L5.86 62.61L5.86 61.99C5.86 61.8 5.88 61.65 5.88 61.65L5.86 61.65C5.67 62.11 5.06 62.72 4.15 62.72C3.1 62.72 2.56 62.17 2.56 60.93L2.56 57.95Z" />
		<path id="Layer" class="shp0" d="M8.13 57.95L9 57.95L9 58.57C9 58.75 8.98 58.91 8.98 58.91L9 58.91C9.18 58.5 9.74 57.84 10.75 57.84C11.85 57.84 12.35 58.44 12.35 59.63L12.35 62.62L11.46 62.62L11.46 59.84C11.46 59.19 11.32 58.67 10.58 58.67C9.87 58.67 9.3 59.14 9.11 59.81C9.05 59.99 9.04 60.21 9.04 60.44L9.04 62.62L8.15 62.62L8.15 57.95L8.13 57.95Z" />
		<path id="Layer" fill-rule="evenodd" class="shp0" d="M15.56 57.84C16.64 57.84 17 58.58 17 58.58L17.02 58.58C17.02 58.58 17 58.44 17 58.27L17 56.1L17.89 56.1L17.89 62.61L17.04 62.61L17.04 62.17C17.04 61.99 17.05 61.86 17.05 61.86L17.03 61.86C17.03 61.86 16.65 62.73 15.5 62.73C14.24 62.73 13.44 61.73 13.44 60.29C13.45 58.79 14.33 57.84 15.56 57.84ZM15.68 61.95C16.37 61.95 17.03 61.46 17.03 60.27C17.03 59.44 16.6 58.61 15.71 58.61C14.97 58.61 14.36 59.22 14.36 60.28C14.37 61.29 14.91 61.95 15.68 61.95Z" />
		<path id="Layer" class="shp0" d="M21.77 61.17C21.77 61.17 22.46 61.87 23.43 61.87C24.04 61.87 24.55 61.53 24.55 60.91C24.55 59.5 21.4 59.8 21.4 57.8C21.4 56.79 22.28 55.98 23.5 55.98C24.71 55.98 25.34 56.63 25.34 56.63L24.93 57.39C24.93 57.39 24.33 56.83 23.5 56.83C22.81 56.83 22.32 57.26 22.32 57.78C22.32 59.13 25.47 58.77 25.47 60.88C25.47 61.88 24.7 62.71 23.41 62.71C22.03 62.71 21.25 61.85 21.25 61.85L21.77 61.17Z" />
		<path id="Layer" class="shp0" d="M26.7 58.73L26.1 58.73L26.1 58.01L26.74 58.01L26.74 56.66L27.61 56.66L27.61 58.01L28.73 58.01L28.73 58.73L27.6 58.73L27.6 60.8C27.6 61.73 28.25 61.85 28.6 61.85C28.73 61.85 28.81 61.83 28.81 61.83L28.81 62.62C28.81 62.62 28.68 62.64 28.5 62.64C27.9 62.64 26.71 62.46 26.71 60.9L26.71 58.73L26.7 58.73Z" />
		<path id="Layer" class="shp0" d="M29.65 57.95L30.54 57.95L30.54 60.73C30.54 61.38 30.67 61.89 31.42 61.89C32.37 61.89 32.93 61.05 32.93 60.13L32.93 57.95L33.82 57.95L33.82 62.61L32.95 62.61L32.95 61.99C32.95 61.8 32.97 61.65 32.97 61.65L32.95 61.65C32.76 62.11 32.15 62.72 31.24 62.72C30.19 62.72 29.65 62.17 29.65 60.93L29.65 57.95Z" />
		<path id="Layer" fill-rule="evenodd" class="shp0" d="M37.08 57.84C38.16 57.84 38.52 58.58 38.52 58.58L38.54 58.58C38.54 58.58 38.52 58.44 38.52 58.27L38.52 56.1L39.41 56.1L39.41 62.61L38.56 62.61L38.56 62.17C38.56 61.99 38.57 61.86 38.57 61.86L38.55 61.86C38.55 61.86 38.17 62.73 37.02 62.73C35.76 62.73 34.96 61.73 34.96 60.29C34.97 58.79 35.84 57.84 37.08 57.84ZM37.2 61.95C37.89 61.95 38.55 61.46 38.55 60.27C38.55 59.44 38.12 58.61 37.23 58.61C36.49 58.61 35.88 59.22 35.88 60.28C35.88 61.29 36.42 61.95 37.2 61.95Z" />
		<path id="Layer" class="shp0" d="M40.8 56.1L41.7 56.1L41.7 57.01L40.8 57.01L40.8 56.1ZM40.81 57.95L41.7 57.95L41.7 62.61L40.81 62.61L40.81 57.95Z" />
		<path id="Layer" fill-rule="evenodd" class="shp0" d="M45.15 57.84C46.47 57.84 47.17 58.82 47.17 60.02C47.17 60.14 47.14 60.41 47.14 60.41L43.74 60.41C43.79 61.43 44.51 61.95 45.34 61.95C46.14 61.95 46.72 61.41 46.72 61.41L47.09 62.06C47.09 62.06 46.4 62.72 45.28 62.72C43.81 62.72 42.81 61.66 42.81 60.28C42.82 58.79 43.83 57.84 45.15 57.84ZM46.26 59.73C46.23 58.93 45.73 58.54 45.14 58.54C44.46 58.54 43.91 58.96 43.78 59.73L46.26 59.73Z" />
		<path id="Layer" class="shp0" d="M48.31 57.95L49.18 57.95L49.18 58.57C49.18 58.75 49.16 58.91 49.16 58.91L49.18 58.91C49.36 58.5 49.92 57.84 50.93 57.84C52.03 57.84 52.53 58.44 52.53 59.63L52.53 62.62L51.64 62.62L51.64 59.84C51.64 59.19 51.5 58.67 50.76 58.67C50.05 58.67 49.48 59.14 49.29 59.81C49.23 59.99 49.22 60.21 49.22 60.44L49.22 62.62L48.33 62.62L48.33 57.95L48.31 57.95Z" />
		<path id="Layer" class="shp0" d="M53.28 57.95L54.23 57.95L55.2 61.22C55.27 61.46 55.31 61.72 55.32 61.72L55.34 61.72C55.34 61.72 55.39 61.46 55.46 61.22L56.47 57.96L57.29 57.96L58.29 61.22C58.36 61.46 58.42 61.72 58.42 61.72L58.44 61.72C58.44 61.72 58.48 61.46 58.55 61.22L59.53 57.95L60.47 57.95L58.97 62.61L57.98 62.61L57.01 59.61C56.94 59.37 56.88 59.1 56.88 59.1L56.86 59.1C56.86 59.1 56.8 59.37 56.73 59.61L55.77 62.61L54.77 62.61L53.28 57.95Z" />
		<path id="Layer" fill-rule="evenodd" class="shp0" d="M63.73 59.7L63.93 59.7L63.93 59.62C63.93 58.85 63.5 58.6 62.91 58.6C62.19 58.6 61.61 59.05 61.61 59.05L61.24 58.4C61.24 58.4 61.91 57.85 62.98 57.85C64.16 57.85 64.82 58.5 64.82 59.67L64.82 62.62L64 62.62L64 62.18C64 61.97 64.02 61.81 64.02 61.81L64 61.81C64 61.81 63.62 62.73 62.51 62.73C61.71 62.73 60.93 62.24 60.93 61.31C60.92 59.76 62.95 59.7 63.73 59.7ZM62.7 62C63.46 62 63.94 61.21 63.94 60.52L63.94 60.37L63.71 60.37C63.04 60.37 61.82 60.42 61.82 61.25C61.83 61.63 62.12 62 62.7 62Z" />
		<path id="Layer" class="shp0" d="M66.19 56.1L67.08 56.1L67.08 58.49C67.08 58.71 67.06 58.88 67.06 58.88L67.08 58.88C67.28 58.43 67.87 57.84 68.8 57.84C69.9 57.84 70.4 58.44 70.4 59.63L70.4 62.62L69.51 62.62L69.51 59.84C69.51 59.19 69.37 58.67 68.63 58.67C67.93 58.67 67.35 59.15 67.16 59.82C67.1 60 67.09 60.22 67.09 60.44L67.09 62.62L66.2 62.62L66.2 56.1L66.19 56.1Z" />
		<path id="Layer" class="shp0" d="M71.73 56.1L72.62 56.1L72.62 61.18C72.62 61.74 72.84 61.84 73.12 61.84C73.2 61.84 73.28 61.83 73.28 61.83L73.28 62.62C73.28 62.62 73.14 62.64 72.99 62.64C72.48 62.64 71.74 62.5 71.74 61.33L71.74 56.1L71.73 56.1Z" />
	</g>
</svg>