<?xml version="1.0" encoding="UTF-8"?>
<svg width="120px" height="120px" viewBox="0 0 120 120" version="1.1" xmlns="http://www.w3.org/2000/svg" xmlns:xlink="http://www.w3.org/1999/xlink">
    <!-- Generator: Sketch 54.1 (76490) - https://sketchapp.com -->
    <title>icon / inspiration</title>
    <desc>Created with Sketch.</desc>
    <g id="Page-1" stroke="none" stroke-width="1" fill="none" fill-rule="evenodd">
        <g id="moinblockchain_home" transform="translate(-1050.000000, -1186.000000)">
            <g id="usps" transform="translate(167.000000, 1186.000000)">
                <g id="icon-/-inspiration" transform="translate(883.000000, 0.000000)">
                    <rect id="Rectangle" fill="#FFFFFF" fill-rule="nonzero" x="0" y="0" width="120" height="120"></rect>
                    <g id="icon-5" transform="translate(26.000000, 5.000000)">
                        <polygon id="Fill-4" fill="#EEEEEE" points="31.826 107.4252 32.05 33.6632 62.604 33.1732 61.162 42.3152 59.968 52.7232 48.722 63.6192 44.804 68.7312 45.692 93.9352"></polygon>
                        <path d="M63.7068,29.6 C63.7068,45.946 52.1668,59.198 37.9328,59.198 C23.6988,59.198 12.1608,45.946 12.1608,29.6 C12.1608,13.252 23.6988,2.84217094e-14 37.9328,2.84217094e-14 C52.1668,2.84217094e-14 63.7068,13.252 63.7068,29.6" id="Fill-6" fill="#EEEEEE"></path>
                        <path d="M46.5058,29.7788 C46.4498,29.6088 46.3458,29.4668 46.2478,29.3268 C46.2218,29.2848 46.2078,29.2388 46.1778,29.1988 C46.0278,29.0128 45.8478,28.8608 45.6418,28.7428 C45.6378,28.7408 45.6358,28.7368 45.6318,28.7348 L45.6318,28.7348 C45.4458,28.6308 45.2418,28.5708 45.0318,28.5348 C44.9938,28.5288 44.9598,28.5088 44.9218,28.5048 C44.8078,28.4928 44.6918,28.5228 44.5738,28.5328 C44.4478,28.5448 44.3178,28.5388 44.1958,28.5748 C44.1838,28.5788 44.1698,28.5748 44.1578,28.5788 C42.8658,28.9968 41.7438,29.5708 40.7058,30.0808 L40.6098,30.1388 C38.9758,30.9528 37.6318,31.6008 36.6278,30.7828 L34.3298,28.9048 C34.2998,28.8808 34.2618,28.8748 34.2298,28.8528 C34.0938,28.7548 33.9518,28.6808 33.7978,28.6248 C33.7158,28.5948 33.6398,28.5708 33.5578,28.5548 C33.4138,28.5248 33.2758,28.5148 33.1278,28.5168 C33.0338,28.5208 32.9458,28.5268 32.8538,28.5428 C32.7138,28.5668 32.5838,28.6108 32.4498,28.6688 C32.3618,28.7068 32.2798,28.7488 32.1958,28.8028 C32.1318,28.8428 32.0598,28.8568 31.9998,28.9048 L29.7038,30.7828 C28.6978,31.5988 27.3538,30.9528 25.7418,30.1388 L25.6258,30.0808 C24.5998,29.5708 23.4818,28.9968 22.1718,28.5788 C21.9178,28.5008 21.6618,28.4868 21.4118,28.5148 C21.4018,28.5148 21.3938,28.5208 21.3858,28.5208 C21.1538,28.5508 20.9338,28.6188 20.7298,28.7288 C20.7218,28.7308 20.7158,28.7308 20.7098,28.7348 C20.6418,28.7708 20.6018,28.8328 20.5438,28.8748 C20.4138,28.9668 20.2838,29.0528 20.1818,29.1788 C20.0818,29.2968 20.0238,29.4348 19.9598,29.5708 C19.9218,29.6448 19.8658,29.7008 19.8398,29.7808 C19.8378,29.7908 19.8398,29.8008 19.8378,29.8108 C19.7738,30.0208 19.7538,30.2388 19.7678,30.4588 C19.7698,30.4808 19.7618,30.5008 19.7638,30.5208 C19.7738,30.6428 19.8278,30.7568 19.8658,30.8768 C19.8998,30.9988 19.9238,31.1228 19.9818,31.2348 C19.9858,31.2408 19.9858,31.2488 19.9898,31.2568 C23.3818,37.4048 25.3018,42.3708 26.3798,47.7388 C27.4618,53.1628 27.6898,59.0428 27.6898,66.8748 C27.6898,67.9168 28.5258,68.7328 29.5498,68.7328 C30.5758,68.7328 31.4098,67.9168 31.4098,66.8748 C31.4098,58.7548 31.1638,52.6668 30.0418,47.0148 C29.1958,42.7388 27.8398,38.6988 25.7118,34.2308 C27.8258,35.1628 29.7758,35.5088 32.0498,33.6628 L33.1598,32.7488 L34.2898,33.6628 C36.5538,35.5228 38.5118,35.1688 40.6298,34.2428 C38.5018,38.7068 37.1478,42.7408 36.2998,47.0148 C35.1638,52.6848 34.9358,58.7528 34.9158,66.8728 C34.9158,67.9148 35.7518,68.7308 36.7778,68.7308 C37.8018,68.7308 38.6358,67.9148 38.6358,66.8728 C38.6358,59.0408 38.8658,53.1608 39.9438,47.7368 C41.0258,42.3688 42.9438,37.4008 46.3578,31.2548 C46.3638,31.2448 46.3618,31.2348 46.3678,31.2248 C46.4458,31.0788 46.4778,30.9148 46.5158,30.7548 C46.5318,30.6828 46.5698,30.6168 46.5778,30.5448 C46.6018,30.2928 46.5838,30.0348 46.5058,29.7788" id="Fill-8" fill="#010101"></path>
                        <path d="M24.9784,12.975 C26.2504,12.441 27.5944,12.023 28.9844,11.741 C30.3104,11.475 31.7104,11.343 33.1744,11.343 C34.1984,11.343 35.0324,10.507 35.0324,9.483 C35.0324,8.439 34.1984,7.603 33.1744,7.603 C31.5224,7.603 29.8704,7.773 28.2604,8.099 C26.6084,8.439 25.0364,8.935 23.5344,9.555 C22.0604,10.183 20.6384,10.963 19.3464,11.813 L19.3464,11.833 C18.0024,12.725 16.7684,13.749 15.6664,14.849 C14.5484,15.971 13.5444,17.203 12.6304,18.527 L12.6504,18.527 L12.6304,18.549 C11.7624,19.841 10.9984,21.243 10.3724,22.719 C9.9744,23.669 10.4124,24.749 11.3624,25.145 C12.3104,25.543 13.4124,25.111 13.7924,24.159 C14.3224,22.927 14.9664,21.733 15.7244,20.615 C16.4844,19.493 17.3564,18.453 18.3044,17.483 C19.2884,16.517 20.3344,15.643 21.4364,14.905 C22.5704,14.149 23.7444,13.505 24.9784,12.975" id="Fill-10" fill="#010101"></path>
                        <path d="M12.578,36.5474 C12.29,35.2214 12.16,33.8194 12.16,32.3574 C12.16,31.3334 11.326,30.4774 10.3,30.4774 C9.258,30.4774 8.422,31.3334 8.422,32.3574 C8.422,34.0074 8.592,35.6534 8.918,37.2714 C9.258,38.8974 9.752,40.4754 10.372,41.9694 C10.776,42.9234 11.854,43.3534 12.8,42.9754 C13.752,42.5774 14.19,41.4794 13.79,40.5294 C13.258,39.2614 12.84,37.9114 12.578,36.5474" id="Fill-12" fill="#010101"></path>
                        <path d="M61.162,42.315 C60.198,45.291 58.754,48.059 56.954,50.525 C53.598,55.113 50.924,58.075 48.836,60.385 C44.684,64.991 42.656,67.231 42.334,73.455 L24.142,73.455 C23.822,67.269 21.754,65.011 17.622,60.481 L17.622,60.463 C15.496,58.127 12.748,55.133 9.37,50.523 C7.566,48.057 6.144,45.269 5.158,42.295 C4.232,39.429 3.716,36.357 3.716,33.173 C3.716,29.173 4.514,25.355 5.954,21.903 L5.994,21.811 C7.474,18.261 9.654,15.037 12.35,12.349 C15.078,9.635 18.32,7.435 21.908,5.953 C25.356,4.513 29.172,3.715 33.172,3.715 C37.172,3.715 40.964,4.513 44.436,5.953 C48.02,7.435 51.262,9.635 53.994,12.349 C59.306,17.675 62.604,25.035 62.604,33.173 C62.606,36.357 62.096,39.431 61.162,42.315 L61.162,42.315 Z M39.082,91.151 L42.334,91.151 L42.334,77.169 L39.082,77.169 L39.082,91.151 Z M31.686,91.151 L35.42,91.151 L35.42,77.169 L31.686,77.169 L31.686,91.151 Z M24.146,91.151 L28.022,91.151 L28.022,77.169 L24.146,77.169 L24.146,91.151 Z M37.092,98.697 L29.39,98.697 L26.194,94.815 L40.286,94.815 L37.092,98.697 Z M56.632,9.711 C53.58,6.657 49.918,4.191 45.86,2.521 C41.932,0.889 37.648,0.001 33.172,0.001 C28.696,0.001 24.408,0.891 20.484,2.521 C16.426,4.209 12.766,6.655 9.71,9.711 C6.696,12.727 4.228,16.367 2.558,20.407 L2.52,20.481 C0.888,24.389 0,28.675 0,33.171 C0,36.733 0.568,40.207 1.632,43.449 C2.71,46.805 4.342,49.937 6.37,52.725 C9.88,57.519 12.688,60.593 14.868,62.965 C18.736,67.197 20.464,69.091 20.464,75.311 C20.464,75.341 20.482,75.369 20.484,75.399 L20.484,92.983 C20.484,93.069 20.522,93.143 20.532,93.225 C20.548,93.351 20.564,93.475 20.608,93.597 C20.652,93.721 20.718,93.825 20.788,93.935 C20.83,94.005 20.848,94.083 20.902,94.149 L31.826,107.425 C32.172,107.847 32.694,108.093 33.24,108.093 C33.786,108.093 34.306,107.847 34.652,107.425 L45.578,94.149 C45.63,94.085 45.648,94.005 45.692,93.935 C45.76,93.825 45.828,93.721 45.87,93.597 C45.916,93.475 45.93,93.351 45.948,93.225 C45.958,93.143 45.996,93.069 45.996,92.983 L45.996,75.475 C46.002,75.417 46.03,75.369 46.03,75.311 C46.03,69.033 47.718,67.159 51.608,62.853 C53.768,60.481 56.536,57.409 59.968,52.725 C61.998,49.939 63.61,46.807 64.712,43.451 C65.776,40.207 66.344,36.755 66.344,33.173 C66.344,24.011 62.624,15.703 56.632,9.711 L56.632,9.711 Z" id="Fill-14" fill="#010101"></path>
                    </g>
                </g>
            </g>
        </g>
    </g>
</svg>