<?xml version="1.0" encoding="UTF-8"?>
<svg width="120px" height="120px" viewBox="0 0 120 120" version="1.1" xmlns="http://www.w3.org/2000/svg" xmlns:xlink="http://www.w3.org/1999/xlink">
    <!-- Generator: Sketch 54.1 (76490) - https://sketchapp.com -->
    <title>icon / education</title>
    <desc>Created with Sketch.</desc>
    <g id="Page-1" stroke="none" stroke-width="1" fill="none" fill-rule="evenodd">
        <g id="moinblockchain_home" transform="translate(-270.000000, -1186.000000)">
            <g id="usps" transform="translate(167.000000, 1186.000000)">
                <g id="icon-/-education" transform="translate(103.000000, 0.000000)">
                    <rect id="Rectangle" fill="#FFFFFF" fill-rule="nonzero" x="0" y="0" width="120" height="120"></rect>
                    <g transform="translate(0.000000, 6.000000)">
                        <polygon id="Fill-106" fill="#EEEEEE" points="9.32400513 95.2680209 106.276348 95.2680209 106.276348 26.1528156 9.32400513 26.1528156"></polygon>
                        <path d="M87.6326449,104.608797 L87.6326449,28.0200666 C87.6326449,26.988527 86.797892,26.1521991 85.7682951,26.1521991 L55.9345962,26.1521991 C54.9049993,26.1521991 54.0722974,26.988527 54.0722974,28.0200666 L54.0722974,104.608797 L50.3415468,104.608797 L50.3415468,42.965061 C50.3394958,42.6712161 50.2697621,42.3835358 50.1364478,42.1246234 L42.6790486,27.179629 C42.2196268,26.2549421 41.1018373,25.8809577 40.1788919,26.3412462 C39.8158667,26.5220739 39.5225751,26.8179737 39.342088,27.179629 L31.8826378,42.1246234 C31.7575274,42.3855906 31.6939467,42.673271 31.6980487,42.965061 L31.6980487,104.608797 L3.73075061,104.608797 L3.73075061,18.6807293 L115.599943,18.6807293 L115.599943,104.608797 L87.6326449,104.608797 Z M57.800997,97.1352719 L67.122746,97.1352719 L67.122746,93.4015919 L57.800997,93.4015919 L57.800997,87.7959347 L70.8514457,87.7959347 L70.8514457,84.0601998 L57.800997,84.0601998 L57.800997,78.4545426 L67.122746,78.4545426 L67.122746,74.7208625 L57.800997,74.7208625 L57.800997,69.1172602 L70.8514457,69.1172602 L70.8514457,65.3794704 L57.800997,65.3794704 L57.800997,59.7779229 L67.122746,59.7779229 L67.122746,56.0401332 L57.800997,56.0401332 L57.800997,50.4365308 L70.8514457,50.4365308 L70.8514457,46.6987411 L57.800997,46.6987411 L57.800997,41.0971936 L67.122746,41.0971936 L67.122746,37.3594038 L57.800997,37.3594038 L57.800997,29.887934 L83.9039453,29.887934 L83.9039453,104.608797 L57.800997,104.608797 L57.800997,97.1352719 Z M35.4267483,104.608797 L46.6128472,104.608797 L46.6128472,52.3043983 L35.4267483,52.3043983 L35.4267483,104.608797 Z M36.5814556,41.0971936 L41.0197977,32.2058158 L45.4581399,41.0971936 L36.5814556,41.0971936 Z M35.4267483,48.5666085 L46.6128472,48.5666085 L46.6128472,44.8308736 L35.4267483,44.8308736 L35.4267483,48.5666085 Z M3.73075061,14.9429396 L22.3742487,14.9429396 L22.3742487,3.7357349 L3.73075061,3.7357349 L3.73075061,14.9429396 Z M26.1049993,14.9429396 L115.599943,14.9429396 L115.599943,3.7357349 L26.1049993,3.7357349 L26.1049993,14.9429396 Z M117.464293,0 L1.8664008,0 C0.836803874,0 -1.42108547e-14,0.83632789 -1.42108547e-14,1.86786745 L-1.42108547e-14,106.476664 C-1.42108547e-14,107.508204 0.836803874,108.344531 1.8664008,108.344531 L117.464293,108.344531 C118.49389,108.344531 119.328643,107.508204 119.328643,106.476664 L119.328643,1.86786745 C119.328643,0.83632789 118.49389,0 117.464293,0 L117.464293,0 Z" id="Fill-107" fill="#010101"></path>
                        <polygon id="Fill-108" fill="#010101" points="7.45965532 11.2057663 11.1883549 11.2057663 11.1883549 7.47208625 7.45965532 7.47208625"></polygon>
                        <polygon id="Fill-109" fill="#010101" points="14.9170546 11.2057663 18.6457542 11.2057663 18.6457542 7.47208625 14.9170546 7.47208625"></polygon>
                        <polygon id="Fill-110" fill="#010101" points="108.140698 11.2057663 111.869398 11.2057663 111.869398 7.47208625 108.140698 7.47208625"></polygon>
                        <polygon id="Fill-111" fill="#010101" points="100.683299 11.2057663 104.411998 11.2057663 104.411998 7.47208625 100.683299 7.47208625"></polygon>
                        <polygon id="Fill-112" fill="#010101" points="93.2258994 11.2057663 96.9545991 11.2057663 96.9545991 7.47208625 93.2258994 7.47208625"></polygon>
                        <polygon id="Fill-113" fill="#010101" points="39.155653 100.871623 42.8843527 100.871623 42.8843527 56.0407496 39.155653 56.0407496"></polygon>
                        <path d="M9.32338983,26.1528156 L9.32338983,97.1358884 C9.32338983,98.1674279 10.1581427,99.0037558 11.1877396,99.0037558 L26.1045891,99.0037558 L26.1045891,95.2680209 L13.0520894,95.2680209 L13.0520894,28.0186282 L27.9689389,28.0186282 L27.9689389,24.2849482 L11.1877396,24.2849482 C10.1581427,24.2849482 9.32338983,25.1192212 9.32338983,26.1528156" id="Fill-114" fill="#010101"></path>
                        <path d="M108.141518,24.2847427 L93.2267198,24.2847427 L93.2267198,28.0184227 L106.277168,28.0184227 L106.277168,95.2678154 L93.2267198,95.2678154 L93.2267198,99.0035503 L108.141518,99.0035503 C109.171115,99.0035503 110.005868,98.1672225 110.005868,97.1356829 L110.005868,26.1526101 C110.005868,25.1190157 109.171115,24.2847427 108.141518,24.2847427" id="Fill-115" fill="#010101"></path>
                    </g>
                </g>
            </g>
        </g>
    </g>
</svg>