<?xml version="1.0" encoding="UTF-8"?>
<svg width="120px" height="120px" viewBox="0 0 120 120" version="1.1" xmlns="http://www.w3.org/2000/svg" xmlns:xlink="http://www.w3.org/1999/xlink">
    <!-- Generator: Sketch 54.1 (76490) - https://sketchapp.com -->
    <title>icon / networking</title>
    <desc>Created with Sketch.</desc>
    <g id="Page-1" stroke="none" stroke-width="1" fill="none" fill-rule="evenodd">
        <g id="moinblockchain_home" transform="translate(-660.000000, -1186.000000)">
            <g id="usps" transform="translate(167.000000, 1186.000000)">
                <g id="icon-/-networking" transform="translate(493.000000, 0.000000)">
                    <rect id="Rectangle" fill="#FFFFFF" fill-rule="nonzero" x="0" y="0" width="120" height="120"></rect>
                    <g id="icon-6" transform="translate(15.000000, 9.000000)">
                        <polygon id="Fill-1" fill="#EEEEEE" points="29.110186 41.984902 42.4992558 34.2157592 44.8790233 31.8089224 62.0669302 43.2082898 60.153907 62.1455755 44.5587907 70.4549429 27.6283256 60.9600245"></polygon>
                        <path d="M7.93465116,68.032551 C11.3065116,68.2322449 12.3467442,72.0180204 11.3065116,73.7101633 C10.6639535,74.9566735 9.4227907,75.8016939 7.93465116,75.8016939 C5.85209302,75.8016939 4.16511628,74.109551 4.16511628,72.0180204 C4.16511628,69.9243878 5.85209302,68.2322449 7.93465116,68.032551 L7.93465116,68.032551 Z M4.16511628,29.5820204 C4.16511628,27.4904898 5.85209302,25.7983469 7.93465116,25.7983469 C13.7867442,26.1977347 12.5476744,34.0152245 7.93465116,33.3677959 C5.85209302,33.3677959 4.16511628,31.6756531 4.16511628,29.5820204 L4.16511628,29.5820204 Z M13.8348837,35.2617347 L24.9446512,41.7864694 L24.9446512,59.6664286 L13.6381395,66.1890612 C13.8348837,65.9893673 10.712093,64.0975306 10.264186,64.2972245 L10.264186,37.6013061 C10.4651163,37.7526531 13.8348837,35.6611224 13.8348837,35.2617347 L13.8348837,35.2617347 Z M15.7206977,27.4421429 L38.9783721,13.9932857 C39.8218605,15.040102 41.0609302,15.6875306 42.5490698,16.0869184 L42.5490698,29.1363878 L26.9790698,37.9502449 L15.7206977,31.4759592 C16.1162791,29.9814082 16.1162791,28.737 15.7206977,27.4421429 L15.7206977,27.4421429 Z M44.7802326,4.532 C46.8648837,4.532 48.5497674,6.22414286 48.7486047,8.31567347 C48.1018605,13.596 41.4083721,13.3458571 41.0127907,8.31567347 C41.0127907,6.22414286 42.6976744,4.532 44.7802326,4.532 L44.7802326,4.532 Z M50.4355814,14.1929796 L73.444186,28.0895714 C73.0465116,29.3339796 73.0465116,30.8285306 73.444186,32.2726327 L62.3365116,38.5976735 L46.8648837,29.5820204 L46.8648837,16.5346531 C47.2604651,16.3349592 47.5074419,16.3349592 47.9051163,16.1373673 L48.1039535,15.9376735 C48.9955814,15.4878367 49.8390698,14.8404082 50.4355814,14.1929796 L50.4355814,14.1929796 Z M75.5769767,35.4614286 C76.4204651,36.5061429 77.6595349,37.1556735 79.3465116,37.5529592 L79.3465116,64.2467755 C77.8583721,64.6461633 76.8160465,65.4932857 75.775814,66.3383061 L64.4693023,59.8156735 L64.4693023,41.9357143 L75.5769767,35.4614286 Z M81.2323256,25.7983469 C83.3148837,25.7983469 84.9997674,27.6901837 85.1986047,29.5820204 C84.9997674,32.9705102 81.627907,34.0152245 80.3867442,33.3677959 C75.775814,31.8732449 76.8160465,25.7983469 81.2323256,25.7983469 L81.2323256,25.7983469 Z M84.7506977,72.2156122 C84.7506977,74.3071429 83.065814,76.0013878 80.9811628,76.0013878 C79.4930233,76.0013878 78.2560465,75.1563673 77.6093023,73.9098571 C76.3702326,70.7715102 78.0069767,68.4298367 80.9811628,68.4298367 C83.1160465,68.4298367 84.7506977,70.1240816 84.7506977,72.2156122 L84.7506977,72.2156122 Z M73.2453488,74.109551 L50.2367442,87.3566122 C49.1944186,86.3097959 47.9553488,85.4647755 46.6660465,85.2650816 L46.6660465,72.4636531 L62.1376744,63.450102 L73.2453488,69.9748367 C72.8497674,71.170898 73.0465116,72.6633469 73.2453488,74.109551 L73.2453488,74.109551 Z M44.7802326,97.0196939 C42.6976744,97.0196939 40.8139535,95.325449 40.8139535,93.2339184 C41.2095349,87.756 48.3530233,88.4013265 48.5497674,93.2339184 C48.5497674,95.375898 46.8648837,97.0196939 44.7802326,97.0196939 L44.7802326,97.0196939 Z M42.5009302,49.7553061 L29.1097674,57.524449 L29.1097674,41.9840612 L42.5009302,34.2149184 L42.5009302,49.7553061 Z M46.6660465,49.5556122 L46.6660465,33.9647755 L60.0551163,41.9357143 L60.0551163,57.2743061 L46.6660465,49.5556122 Z M57.9725581,60.8603878 L44.5834884,68.6295306 L31.1923256,60.8603878 L44.5834884,53.2888367 L57.9725581,60.8603878 Z M38.9302326,87.6067551 L15.9174419,73.9582041 C16.1162791,72.715898 16.1162791,71.2213469 15.7206977,69.9748367 L27.0272093,63.450102 L42.5009302,72.4636531 L42.5009302,85.5131224 C41.0127907,85.9125102 39.9725581,86.5094898 38.9302326,87.6067551 L38.9302326,87.6067551 Z M0,72.2156122 C0,76.6488163 3.57069767,80.184449 7.93465116,80.184449 C10.2160465,80.184449 12.3467442,79.1397347 14.2325581,77.8932245 L37.2432558,91.3420816 C37.2432558,91.9874082 37.0444186,92.5864898 37.0444186,93.2339184 C37.0444186,97.6671224 40.6151163,101.202755 44.9790698,101.202755 C49.3932558,101.202755 52.9137209,97.6166735 52.9137209,93.2339184 C52.9137209,92.5864898 52.7169767,91.7393673 52.5181395,91.1423878 L75.5267442,77.8932245 C77.0148837,79.3877755 78.8986047,80.184449 81.18,80.184449 C85.594186,80.184449 89.1146512,76.5983673 89.1146512,72.2156122 C89.1146512,68.4298367 86.5862791,65.2935918 83.2625581,64.4464694 L83.2625581,37.5529592 C86.6365116,36.5061429 89.1146512,33.3677959 89.1146512,29.7817143 C89.1146512,25.3506122 85.5439535,21.8149796 81.18,21.8149796 C78.8986047,21.8149796 77.0148837,22.66 75.5267442,24.1062041 L52.5181395,10.6573469 C52.5181395,10.0099184 52.7169767,9.16279592 52.7169767,8.56581633 C52.7169767,4.13261224 49.144186,0.596979592 44.7802326,0.596979592 C40.4183721,0.596979592 36.8455814,4.18306122 36.8455814,8.56581633 C36.8455814,9.41293878 36.8455814,10.0603673 37.0444186,10.6573469 L13.587907,24.1062041 C12.0997674,22.6116531 10.0172093,21.8149796 7.93465116,21.8149796 C3.52255814,21.8149796 0,25.3989592 0,29.7817143 C0,33.5674898 2.53046512,36.7058367 6.05093023,37.5529592 L6.05093023,64.4464694 C2.53046512,65.2935918 0,68.4298367 0,72.2156122 L0,72.2156122 Z" id="Fill-2" fill="#010101"></path>
                    </g>
                </g>
            </g>
        </g>
    </g>
</svg>