<?xml version="1.0" encoding="UTF-8"?>
<svg width="32px" height="32px" viewBox="0 0 32 32" version="1.1" xmlns="http://www.w3.org/2000/svg" xmlns:xlink="http://www.w3.org/1999/xlink">
    <!-- Generator: Sketch 54.1 (76490) - https://sketchapp.com -->
    <title>linkedin</title>
    <desc>Created with Sketch.</desc>
    <g id="Symbols" stroke="none" stroke-width="1" fill="none" fill-rule="evenodd">
        <g id="speaker-/-desktop" transform="translate(-140.000000, -424.000000)" fill="#5951FF">
            <g id="speaker">
                <g id="Stacked-Group" transform="translate(140.000000, 424.000000)">
                    <path d="M16,0 C7.16254603,0 0,7.16385251 0,15.9991584 C0,24.8361475 7.16254603,32 16,32 C24.837454,32 32,24.8361475 32,15.9991584 C32,7.16216927 24.837454,0 16,0 L16,0 Z M12.0845871,22.6294251 L8.84418727,22.6294251 L8.84418727,12.2051444 L12.0845871,12.2051444 L12.0845871,22.6294251 L12.0845871,22.6294251 Z M10.4433456,10.925885 C9.4215676,10.925885 8.76002104,10.2004103 8.76002104,9.30492873 C8.76002104,8.38756509 9.44176749,7.68397244 10.4854287,7.68397244 C11.5307733,7.68397244 12.1704366,8.38756509 12.1906365,9.30492873 C12.1906365,10.2004103 11.5307733,10.925885 10.4433456,10.925885 L10.4433456,10.925885 Z M23.9166754,22.6294251 L20.6762756,22.6294251 L20.6762756,16.8508758 C20.6762756,15.5076535 20.2083114,14.5902898 19.0350342,14.5902898 C18.1395055,14.5902898 17.607575,15.2097207 17.3719095,15.8072695 C17.28606,16.0210405 17.2658601,16.3189732 17.2658601,16.6152228 L17.2658601,22.6277418 L14.0254603,22.6277418 L14.0254603,15.5278523 C14.0254603,14.2283941 13.9833772,13.1410236 13.9396107,12.2017779 L16.7541294,12.2017779 L16.9039453,13.6510441 L16.9679116,13.6510441 C17.3937927,12.9693335 18.4391373,11.9661249 20.1881115,11.9661249 C22.3208837,11.9661249 23.9183588,13.3951923 23.9183588,16.4654148 L23.9183588,22.6294251 L23.9166754,22.6294251 Z" id="linkedin"></path>
                </g>
            </g>
        </g>
    </g>
</svg>