<?xml version="1.0" encoding="UTF-8"?>
<svg width="32px" height="32px" viewBox="0 0 32 32" version="1.1" xmlns="http://www.w3.org/2000/svg" xmlns:xlink="http://www.w3.org/1999/xlink">
    <!-- Generator: Sketch 54.1 (76490) - https://sketchapp.com -->
    <title>Shape</title>
    <desc>Created with Sketch.</desc>
    <g id="Symbols" stroke="none" stroke-width="1" fill="none" fill-rule="evenodd">
        <g id="speaker-/-desktop" transform="translate(-188.000000, -424.000000)" fill="#5951FF">
            <g id="speaker">
                <g id="Stacked-Group" transform="translate(140.000000, 424.000000)">
                    <path d="M64,0 C55.162546,0 48,7.16254603 48,16 C48,24.837454 55.162546,32 64,32 C72.837454,32 80,24.837454 80,16 C80,7.16254603 72.837454,0 64,0 L64,0 Z M70.5094161,13.1063651 C70.5161494,13.2427144 70.5178327,13.3790637 70.5178327,13.5137296 C70.5178327,17.6799579 67.3481326,22.4807996 61.5524461,22.4807996 C59.7714887,22.4807996 58.1167806,21.9572856 56.7229879,21.0634403 C56.9687533,21.0937401 57.2195686,21.1072067 57.4737507,21.1072067 C58.9500263,21.1072067 60.3084692,20.6038927 61.3874803,19.7588638 C60.0088375,19.7319306 58.8439769,18.821252 58.4433456,17.5688585 C58.6352446,17.6042083 58.8321936,17.6260915 59.0375592,17.6260915 C59.3237244,17.6260915 59.6031562,17.5873751 59.8674382,17.5166754 C58.4265124,17.2254603 57.3390847,15.9511836 57.3390847,14.4260915 L57.3390847,14.3873751 C57.7632825,14.6230405 58.2497633,14.7661231 58.7665439,14.781273 C57.921515,14.215676 57.3643346,13.251131 57.3643346,12.15697 C57.3643346,11.5779064 57.5192004,11.0375592 57.7902157,10.5729616 C59.3439243,12.4801683 61.6669122,13.7342451 64.2844819,13.8655445 C64.2322988,13.634929 64.2036823,13.3942136 64.2036823,13.1467649 C64.2036823,11.4078906 65.6143083,9.99558127 67.3548659,9.99558127 C68.2604945,9.99558127 69.0785902,10.3793793 69.6542872,10.9904261 C70.3730668,10.8490268 71.0463966,10.5881115 71.6540768,10.2278801 C71.4184114,10.9634929 70.918464,11.581273 70.270384,11.970121 C70.9066807,11.8943714 71.5143609,11.7243556 72.0782746,11.4735402 C71.6591268,12.1064703 71.1238296,12.6636507 70.5094161,13.1063651 L70.5094161,13.1063651 Z" id="Shape"></path>
                </g>
            </g>
        </g>
    </g>
</svg>