<?xml version="1.0" encoding="utf-8"?>
<!-- Generator: Adobe Illustrator 21.1.0, SVG Export Plug-In . SVG Version: 6.00 Build 0)  -->
<svg version="1.1" id="Layer_1" xmlns="http://www.w3.org/2000/svg" xmlns:xlink="http://www.w3.org/1999/xlink" x="0px" y="0px"
	 viewBox="0 0 620 159" style="enable-background:new 0 0 620 159;" xml:space="preserve">
<style type="text/css">
	.st0{fill:#FFFFFF;}
	.st1{fill:#FFB90B;}
</style>
<g>
	<path class="st0" d="M218.8,60.5c3.6-0.9,6.5-2.8,8.8-5.9c2.3-3,3.4-6.6,3.4-10.7c0-5.9-2.2-10.6-6.6-14.2
		c-4.4-3.6-10.5-5.4-18.2-5.4h-24.1v73.4h28.2c7.2,0,12.8-1.8,16.7-5.5c4-3.7,5.9-8.2,5.9-13.6c0-5.4-1.4-9.6-4.1-12.6
		C226.2,63.1,222.8,61.2,218.8,60.5z M193.3,33.6h12c4.8,0,8.4,1,10.7,2.9c2.4,2,3.5,4.6,3.5,8c0,3.3-1.3,6.1-4,8.3
		s-6.7,3.3-12.1,3.3h-10.1V33.6z M207.7,88.5h-14.4V65.3h13.3c4.9,0,8.7,1,11.2,3.1s3.8,5,3.8,8.7C221.5,84.7,216.9,88.5,207.7,88.5
		z M287,24.3h-53.1v9.4h19.2v64.1h11.2V33.7h19.3L287,24.3z M301.3,80.9c-4.9-4.9-7.3-11.5-7.3-19.8s2.5-14.9,7.4-19.9
		s11-7.5,18.4-7.5c4,0,7.3,0.3,9.9,1s5.5,1.9,8.7,3.7v-11c-4.7-2.7-11-4-18.8-4c-10.7,0-19.6,3.5-26.6,10.5S282.5,50,282.5,61.3
		S286,81.7,293,88.5s15.9,10.2,26.9,10.2c8,0,14.2-1.5,18.7-4.5V82.9c-4.8,3.6-10.9,5.4-18.5,5.4C312.4,88.3,306.2,85.8,301.3,80.9z
		 M338.3,65.7h28.2v-9.4h-28.2V65.7z M384.4,65.7h27.1v-9.4h-27.1V33.6H415l3.4-9.4h-45.2v73.4h42.4v-9.4h-31.2L384.4,65.7
		L384.4,65.7z M437.2,80.9c-4.9-4.9-7.3-11.5-7.3-19.8s2.5-14.9,7.4-19.9s11-7.5,18.4-7.5c4,0,7.3,0.3,9.9,1
		c2.6,0.7,5.5,1.9,8.7,3.7v-11c-4.7-2.7-11-4-18.8-4c-10.7,0-19.6,3.5-26.6,10.5S418.4,50,418.4,61.3s3.5,20.4,10.5,27.2
		s15.9,10.2,26.9,10.2c8,0,14.2-1.5,18.7-4.5V82.9c-4.8,3.6-11,5.4-18.5,5.4S442.1,85.8,437.2,80.9z M525.8,55.9h-33V24.3h-11.2
		v73.4h11.2V65.6h33v32.1H537V24.3h-11.2V55.9z M603,33.2c-6-6.9-14.2-10.3-24.6-10.3c-10.3,0-18.6,3.4-24.7,10.3
		c-6.1,6.9-9.2,16.1-9.2,27.5s3.1,20.6,9.2,27.5c6.1,6.9,14.3,10.3,24.6,10.3s18.4-3.4,24.5-10.3c6.1-6.9,9.1-16.1,9.1-27.6
		C612,49.3,609,40.1,603,33.2z M594.5,80.9c-3.8,4.9-9.2,7.3-16,7.3s-12.2-2.5-16.2-7.4s-6-11.6-6-20s1.9-15.1,5.8-20
		c3.9-4.9,9.3-7.4,16.1-7.4c6.9,0,12.2,2.4,16.1,7.3c3.9,4.9,5.8,11.6,5.8,20.1S598.3,76,594.5,80.9z"/>
	<path class="st0" d="M192.6,124.3c1.2-0.2,2.1-0.9,2.8-1.8c0.7-1,1.1-2.1,1.1-3.4c0-1.8-0.7-3.3-2.1-4.4c-1.4-1.1-3.3-1.6-5.7-1.6
		h-6.9V136h8.4c2.2,0,3.9-0.6,5.2-1.7c1.2-1.1,1.8-2.5,1.8-4.3s-0.4-3.1-1.3-4S193.9,124.5,192.6,124.3z M184.6,115.4h4.2
		c1.6,0,2.9,0.3,3.7,1c0.8,0.7,1.2,1.6,1.2,2.8c0,1.1-0.4,2.1-1.3,2.9c-0.9,0.8-2.2,1.2-4.1,1.2h-3.7L184.6,115.4L184.6,115.4z
		 M193.2,132.6c-0.8,0.7-1.9,1-3.4,1h-5.2v-8.1h4.7c1.6,0,2.9,0.4,3.7,1.1c0.9,0.7,1.3,1.7,1.3,3S194,132,193.2,132.6z M201.6,136
		h2.7v-17.3h-2.7V136z M203,111.6c-0.5,0-0.9,0.2-1.2,0.5c-0.3,0.3-0.5,0.8-0.5,1.3s0.2,0.9,0.5,1.2s0.7,0.5,1.2,0.5
		s0.9-0.2,1.3-0.5c0.3-0.3,0.5-0.7,0.5-1.2s-0.2-0.9-0.5-1.3C203.9,111.7,203.5,111.6,203,111.6z M213.2,131v-10.1h4.8v-2.2h-4.8
		v-4.3h-2.7v4.3h-2.8v2.2h2.8v10c0,3.5,1.7,5.2,5.1,5.2c0.9,0,1.8-0.2,2.5-0.6V133c-0.7,0.5-1.5,0.8-2.3,0.8
		C214,133.8,213.2,132.9,213.2,131z M223,121.1c-1.6,1.8-2.4,3.9-2.4,6.4s0.8,4.6,2.4,6.3s3.8,2.6,6.5,2.6c1.6,0,2.9-0.3,4-1v-2.6
		c-1.1,0.8-2.4,1.1-3.7,1.1c-2,0-3.6-0.6-4.7-1.9c-1.1-1.2-1.7-2.8-1.7-4.6c0-1.9,0.6-3.4,1.7-4.7c1.2-1.3,2.7-1.9,4.7-1.9
		c1.4,0,2.6,0.4,3.7,1.1v-2.6c-1.2-0.6-2.5-1-3.9-1C226.8,118.4,224.6,119.3,223,121.1z M244.5,118.5c-2.5,0-4.5,0.9-6,2.6
		c-1.5,1.7-2.2,3.8-2.2,6.4c0,2.6,0.7,4.7,2.2,6.3c1.4,1.7,3.4,2.5,5.9,2.5s4.5-0.8,5.9-2.5c1.5-1.7,2.2-3.8,2.2-6.4
		c0-2.6-0.7-4.7-2.1-6.4S247,118.5,244.5,118.5z M248.3,132.1c-0.9,1.2-2.2,1.9-3.9,1.9c-1.7,0-3-0.6-3.9-1.9
		c-1-1.3-1.4-2.8-1.4-4.6s0.5-3.4,1.4-4.6c0.9-1.3,2.3-1.9,4-1.9s3,0.6,3.9,1.9c0.9,1.2,1.3,2.8,1.3,4.7
		C249.7,129.3,249.2,130.8,248.3,132.1z M256.7,136h2.7v-17.3h-2.7V136z M258,111.6c-0.5,0-0.9,0.2-1.2,0.5
		c-0.3,0.3-0.5,0.8-0.5,1.3s0.2,0.9,0.5,1.2s0.7,0.5,1.2,0.5s0.9-0.2,1.3-0.5c0.3-0.3,0.5-0.7,0.5-1.2s-0.2-0.9-0.5-1.3
		S258.5,111.6,258,111.6z M272.7,118.5c-2.6,0-4.4,1.1-5.4,3.2v-3h-2.7V136h2.7v-9.4c0-1.8,0.5-3.2,1.4-4.2s2-1.5,3.2-1.5
		s2.1,0.3,2.7,1s1,1.6,1,2.9V136h2.7v-11.9c0-1.7-0.5-3.1-1.5-4.1C275.7,119,274.4,118.5,272.7,118.5z M310,126.9h-2.6
		c-0.1,1.2-0.4,2.3-1,3.3l-5.8-5.4c2-0.9,3.3-1.9,4.2-2.9c0.8-1,1.2-2.2,1.2-3.5c0-1.7-0.6-3.1-1.8-4.2c-1.2-1.1-2.7-1.7-4.7-1.7
		c-1.9,0-3.5,0.5-4.6,1.6c-1.2,1-1.7,2.4-1.7,4.1c0,1,0.2,1.9,0.7,2.8c0.5,0.9,1.3,1.9,2.3,3.1c-3.6,1.4-5.4,3.3-5.4,5.9
		c0,1.8,0.8,3.3,2.4,4.5s3.7,1.8,6.5,1.8c2.7,0,5-0.8,6.9-2.4l2.3,2.1h3.6l-4.3-4C309.3,130.5,309.8,128.8,310,126.9z M296.1,118
		c0-0.9,0.3-1.6,1-2.2c0.7-0.6,1.6-0.9,2.7-0.9s2,0.3,2.6,1s1,1.5,1,2.5s-0.3,1.8-1,2.6c-0.7,0.7-1.8,1.5-3.3,2.2
		c-1.1-1.1-1.8-2-2.3-2.7C296.3,119.7,296.1,118.9,296.1,118z M299.9,133.8c-1.9,0-3.4-0.3-4.5-1s-1.6-1.6-1.6-2.6s0.4-1.9,1.1-2.5
		c0.7-0.7,1.8-1.3,3.2-1.8l6.7,6.3C303.4,133.2,301.8,133.8,299.9,133.8z M334.4,124.3c1.2-0.2,2.1-0.9,2.8-1.8
		c0.7-1,1.1-2.1,1.1-3.4c0-1.8-0.7-3.3-2.1-4.4c-1.4-1.1-3.3-1.6-5.7-1.6h-6.9V136h8.4c2.2,0,3.9-0.6,5.2-1.7
		c1.2-1.1,1.8-2.5,1.8-4.3s-0.4-3.1-1.3-4S335.7,124.5,334.4,124.3z M326.4,115.4h4.2c1.6,0,2.9,0.3,3.7,1c0.8,0.7,1.2,1.6,1.2,2.8
		c0,1.1-0.4,2.1-1.3,2.9c-0.9,0.8-2.2,1.2-4.1,1.2h-3.7L326.4,115.4L326.4,115.4z M335,132.6c-0.8,0.7-1.9,1-3.4,1h-5.2v-8.1h4.7
		c1.6,0,2.9,0.4,3.7,1.1c0.9,0.7,1.3,1.7,1.3,3S335.8,132,335,132.6z M343.5,136h2.7v-24.1h-2.7V136z M358.7,118.5
		c-2.5,0-4.5,0.9-6,2.6c-1.5,1.7-2.2,3.8-2.2,6.4c0,2.6,0.7,4.7,2.2,6.3c1.4,1.7,3.4,2.5,5.9,2.5s4.5-0.8,5.9-2.5
		c1.5-1.7,2.2-3.8,2.2-6.4c0-2.6-0.7-4.7-2.1-6.4S361.2,118.5,358.7,118.5z M362.5,132.1c-0.9,1.2-2.2,1.9-3.9,1.9s-3-0.6-3.9-1.9
		c-1-1.3-1.4-2.8-1.4-4.6s0.5-3.4,1.4-4.6c0.9-1.3,2.3-1.9,4-1.9s3,0.6,3.9,1.9c0.9,1.2,1.3,2.8,1.3,4.7
		C363.9,129.3,363.4,130.8,362.5,132.1z M372.3,121.1c-1.6,1.8-2.4,3.9-2.4,6.4s0.8,4.6,2.4,6.3s3.8,2.6,6.5,2.6c1.6,0,2.9-0.3,4-1
		v-2.6c-1.1,0.8-2.4,1.1-3.7,1.1c-2,0-3.6-0.6-4.7-1.9c-1.1-1.2-1.7-2.8-1.7-4.6c0-1.9,0.6-3.4,1.7-4.7c1.2-1.3,2.7-1.9,4.7-1.9
		c1.4,0,2.6,0.4,3.7,1.1v-2.6c-1.2-0.6-2.5-1-3.9-1C376.1,118.4,373.9,119.3,372.3,121.1z M399.7,118.7h-3.2l-6.8,8.2l6.9,9.1h3.2
		l-7-9.1L399.7,118.7z M386.7,136h2.7v-23.9h-2.7V136z M403.7,121.1c-1.6,1.8-2.4,3.9-2.4,6.4s0.8,4.6,2.4,6.3s3.8,2.6,6.5,2.6
		c1.6,0,2.9-0.3,4-1v-2.6c-1.1,0.8-2.4,1.1-3.7,1.1c-2,0-3.6-0.6-4.7-1.9c-1.1-1.2-1.7-2.8-1.7-4.6c0-1.9,0.6-3.4,1.7-4.7
		c1.2-1.3,2.7-1.9,4.7-1.9c1.4,0,2.6,0.4,3.7,1.1v-2.6c-1.2-0.6-2.5-1-3.9-1C407.5,118.4,405.3,119.3,403.7,121.1z M426.2,118.5
		c-2.6,0-4.4,1.1-5.4,3.2v-9.8h-2.7V136h2.7v-9.4c0-1.8,0.5-3.2,1.4-4.2c1-1,2-1.5,3.2-1.5s2.1,0.3,2.7,1c0.6,0.7,1,1.6,1,2.9V136
		h2.7v-11.8c0-1.7-0.5-3.1-1.5-4.2C429.2,119,427.9,118.5,426.2,118.5z M442.1,118.5c-2.1,0-3.8,0.4-5.1,1.2v2.7
		c1.4-1,3-1.5,4.6-1.5s2.8,0.3,3.4,1c0.6,0.7,0.9,1.7,0.9,3.1v0.9h-3.1c-2.2,0-3.9,0.5-5.2,1.4s-1.9,2.2-1.9,3.7
		c0,1.6,0.5,2.8,1.5,3.8s2.3,1.4,3.9,1.4c2.3,0,3.9-0.7,4.8-2.2v2h2.7v-10.9C448.6,120.7,446.4,118.5,442.1,118.5z M445.9,130.2
		c0,1.1-0.4,1.9-1.1,2.6c-0.7,0.7-1.7,1-2.8,1s-2-0.3-2.6-0.8s-0.9-1.2-0.9-2.1c0-0.9,0.4-1.6,1.1-2.1c0.7-0.6,1.8-0.9,3.3-0.9h3
		V130.2z M454.9,111.6c-0.5,0-0.9,0.2-1.2,0.5s-0.5,0.8-0.5,1.3s0.2,0.9,0.5,1.2s0.7,0.5,1.2,0.5s0.9-0.2,1.3-0.5
		c0.3-0.3,0.5-0.7,0.5-1.2s-0.2-0.9-0.5-1.3C455.8,111.7,455.4,111.6,454.9,111.6z M453.6,136h2.7v-17.3h-2.7V136z M469.6,118.5
		c-2.6,0-4.4,1.1-5.4,3.2v-3h-2.7V136h2.7v-9.4c0-1.8,0.5-3.2,1.4-4.2s2-1.5,3.2-1.5s2.1,0.3,2.7,1c0.6,0.7,1,1.6,1,2.9V136h2.7
		v-11.9c0-1.7-0.5-3.1-1.5-4.1C472.6,119,471.3,118.5,469.6,118.5z M494.3,113h-6v23h2.8v-8.4h3.5c2.5,0,4.5-0.7,6-2
		s2.3-3.1,2.3-5.2c0-2.1-0.8-3.8-2.3-5.2S497,113,494.3,113z M498.7,123.8c-1,0.9-2.3,1.4-3.9,1.4h-3.7v-9.8h3.4
		c1.8,0,3.1,0.5,4.1,1.4s1.5,2.1,1.5,3.5C500.1,121.7,499.6,122.9,498.7,123.8z M506.7,136h2.7v-17.3h-2.7V136z M508,111.6
		c-0.5,0-0.9,0.2-1.2,0.5s-0.5,0.8-0.5,1.3s0.2,0.9,0.5,1.2s0.7,0.5,1.2,0.5s0.9-0.2,1.3-0.5c0.3-0.3,0.5-0.7,0.5-1.2
		s-0.2-0.9-0.5-1.3S508.5,111.6,508,111.6z M521.8,118.5c-2.5,0-4.5,0.9-6,2.6c-1.5,1.7-2.2,3.8-2.2,6.4c0,2.6,0.7,4.7,2.2,6.3
		c1.4,1.7,3.4,2.5,5.9,2.5s4.5-0.8,5.9-2.5c1.5-1.7,2.2-3.8,2.2-6.4c0-2.6-0.7-4.7-2.1-6.4C526.2,119.3,524.3,118.5,521.8,118.5z
		 M525.6,132.1c-0.9,1.2-2.2,1.9-3.9,1.9s-3-0.6-3.9-1.9s-1.4-2.8-1.4-4.6s0.5-3.4,1.4-4.6c0.9-1.3,2.3-1.9,4-1.9s3,0.6,3.9,1.9
		c0.9,1.2,1.3,2.8,1.3,4.7C527,129.3,526.5,130.8,525.6,132.1z M542,118.5c-2.6,0-4.4,1.1-5.4,3.2v-3h-2.7V136h2.7v-9.4
		c0-1.8,0.5-3.2,1.4-4.2s2-1.5,3.2-1.5s2.1,0.3,2.7,1c0.6,0.7,1,1.6,1,2.9V136h2.7v-11.9c0-1.7-0.5-3.1-1.5-4.1
		C545.1,119,543.7,118.5,542,118.5z M559.2,118.5c-2.2,0-4,0.8-5.4,2.4c-1.4,1.6-2.1,3.7-2.1,6.4s0.8,4.8,2.4,6.4s3.7,2.4,6.3,2.4
		c1.9,0,3.6-0.4,4.9-1.1v-2.5c-1.2,0.8-2.7,1.2-4.5,1.2s-3.3-0.5-4.4-1.4c-1.1-0.9-1.7-2.2-1.9-3.9h11.8c0.1-0.6,0.2-1.3,0.2-2
		c0-2.5-0.6-4.5-1.9-5.9C563.1,119.2,561.4,118.5,559.2,118.5z M563.6,126.3h-9.3c0.2-1.7,0.7-3.1,1.6-4s2-1.4,3.4-1.4
		c1.3,0,2.4,0.4,3.2,1.3c0.8,0.9,1.2,2,1.2,3.4v0.7H563.6z M577.2,118.5c-2.2,0-4,0.8-5.4,2.4c-1.4,1.6-2.1,3.7-2.1,6.4
		s0.8,4.8,2.4,6.4c1.6,1.6,3.7,2.4,6.3,2.4c1.9,0,3.6-0.4,4.9-1.1v-2.5c-1.2,0.8-2.7,1.2-4.5,1.2c-1.9,0-3.3-0.5-4.4-1.4
		c-1.1-0.9-1.7-2.2-1.9-3.9h11.8c0.1-0.6,0.2-1.3,0.2-2c0-2.5-0.6-4.5-1.9-5.9C581.1,119.2,579.4,118.5,577.2,118.5z M581.6,126.3
		h-9.3c0.2-1.7,0.7-3.1,1.6-4s2-1.4,3.4-1.4s2.4,0.4,3.1,1.3s1.2,2,1.2,3.4V126.3z M591.2,121.8v-3h-2.7v17.3h2.7v-9.4
		c0-1.5,0.4-2.7,1.2-3.8s1.8-1.7,3-1.7c0.5,0,1,0.1,1.5,0.2v-2.7c-0.2,0-0.5-0.1-1-0.1C593.7,118.6,592.2,119.6,591.2,121.8z
		 M609.3,128.4c-0.8-0.7-1.9-1.4-3.1-1.9c-1.3-0.5-2.2-1-2.7-1.3s-0.8-0.6-0.9-0.9c-0.2-0.3-0.2-0.7-0.2-1.3c0-0.5,0.3-1,0.8-1.4
		s1.3-0.6,2.2-0.6c1.8,0,3.2,0.3,4.3,1v-2.6c-1.1-0.5-2.5-0.7-4.2-0.7s-3.1,0.4-4.2,1.3c-1.1,0.9-1.6,2-1.6,3.3s0.4,2.4,1.2,3.1
		c0.8,0.8,1.8,1.4,3.2,1.9c1.3,0.5,2.3,1,2.9,1.5c0.6,0.5,0.9,1.1,0.9,1.8c0,0.8-0.3,1.3-0.8,1.8c-0.5,0.4-1.3,0.6-2.4,0.6
		c-1.7,0-3.4-0.5-4.9-1.4v2.6c1.3,0.7,2.9,1.1,4.9,1.1c1.9,0,3.4-0.4,4.5-1.3c1-0.9,1.5-2,1.5-3.4
		C610.6,130.2,610.2,129.1,609.3,128.4z"/>
	<g>
		<path class="st0" d="M115.3,86.1c-1.2,6.4-4.3,12.2-9,16.9s-10.6,7.8-16.9,9l51.5,25.7L115.3,86.1z"/>
		<path class="st1" d="M83.4,151.4c-20,0-38.6-8.1-52.3-22.8C19.3,115.9,12.5,99,12,80.8c-0.1-3,2.3-5.5,5.3-5.5h3.9v4.6
			c0,20.1,9.4,38.5,25.9,50.5c6.8,5,14.7,8.5,23,10.3c4.4,0.9,8.9,1.4,13.3,1.4c10.7,0,21.3-2.8,30.6-8.1l9.7,4.8
			C111.7,147.1,97.9,151.4,83.4,151.4z"/>
		<path class="st0" d="M83.4,129.1c-27.1,0-49.1-22-49.1-49.1v-4.6h9.2V80c0,22,17.9,39.9,39.9,39.9c0.6,0,1.2,0,1.9-0.1h0.3
			l13.5,6.7C93.9,128.3,88.7,129.1,83.4,129.1z"/>
		<path class="st1" d="M137.4,110.6c5.3-9.4,8.1-19.9,8.1-30.6c0-17.4-7-33.6-19.8-45.5c-11.5-10.8-27-16.7-43.7-16.7h-3.3v-3.9
			c0-3,2.5-5.3,5.5-5.3c18.2,0.5,35.1,7.3,47.8,19.1C146.7,41.4,154.7,60,154.7,80c0,14.5-4.3,28.4-12.5,40.3L137.4,110.6z"/>
		<path class="st0" d="M123.2,82.1v-0.3c0-0.6,0.1-1.2,0.1-1.9c0-22-17.9-39.9-39.9-39.9h-4.6v-9.2h4.6c27.1,0,49.1,22,49.1,49.1
			c0,5.3-0.9,10.6-2.6,15.6L123.2,82.1z"/>
		<path class="st1" d="M101.8,61.5c-2.9-2.9-6.3-5-10.1-6.2l0,0L25.8,22.5l32.8,65.9l0,0c1.3,3.7,3.4,7.2,6.2,10.1
			c4.9,4.9,11.5,7.6,18.4,7.6c7,0,13.5-2.7,18.4-7.6c4.9-4.9,7.6-11.5,7.6-18.4C109.5,73,106.7,66.5,101.8,61.5z M95.3,91.9
			c-3.2,3.2-7.4,4.9-11.9,4.9s-8.7-1.8-11.9-4.9c-3.2-3.2-4.9-7.4-4.9-11.9s1.8-8.7,4.9-11.9c3.2-3.2,7.4-4.9,11.9-4.9
			s8.8,1.8,11.9,4.9c3.2,3.2,4.9,7.4,4.9,11.9S98.5,88.7,95.3,91.9z"/>
		<path class="st0" d="M78,74.6c1.4-1.4,3.4-2.2,5.4-2.2s4,0.8,5.4,2.2S91,78,91,80s-0.8,4-2.2,5.4s-3.4,2.2-5.4,2.2s-4-0.8-5.4-2.2
			S75.8,82,75.8,80C75.7,77.9,76.5,76,78,74.6z"/>
	</g>
</g>
</svg>
