<?xml version="1.0" encoding="utf-8"?>
<!-- Generator: Adobe Illustrator 22.1.0, SVG Export Plug-In . SVG Version: 6.00 Build 0)  -->
<svg version="1.1" id="logo" xmlns="http://www.w3.org/2000/svg" xmlns:xlink="http://www.w3.org/1999/xlink" x="0px" y="0px"
	 viewBox="0 0 174 62.2" style="enable-background:new 0 0 174 62.2;" xml:space="preserve">
<style type="text/css">
	.st0{display:none;}
	.st1{display:inline;}
	.st2{fill:#00305D;}
	.st3{fill:#D10A11;}
	.st4{fill:#00305E;}
	.st5{fill:#D71921;}
	.st6{fill:#001533;}
	.st7{fill:#B6A9A6;}
	.st8{fill:#9C1006;}
</style>
<g class="st0">
	<g class="st1">
		<path class="st2" d="M111.9,18.9l0.8-2.3h1.6l-2.4,7.3c-0.4,1.2,0.2,2.4,1.7,2.2c2.9-0.5,4.9-4.1,4.4-6.9c-0.8-4.5-5-7.1-9.3-7.3
			c-5.3-0.2-10.9,5.6-10.3,10.9c0.7,6.1,6.1,9,11.6,8.3c2.2-0.3,4.2-1.1,6-2.3l0.6,0.8c-1.1,0.8-2.1,1.4-3.2,1.8
			c-0.5,0.2-1.1,0.4-1.7,0.5c-1.2,0.3-2.6,0.6-3.9,0.6c-5.1,0-10.4-3.4-11-8.8c-0.8-7.1,5.2-13.6,12.8-13.2c4.7,0.2,9.7,3.6,9.9,8.6
			c0.2,3.1-1.7,7-4.8,8.1c-1.1,0.4-2.4,0.3-3,0.1c-1.1-0.3-1.4-1.1-1.6-2c-0.9,0.8-1.3,1.4-2.6,1.9c-1,0.3-1.9,0.2-2.6-0.1
			c-1.3-0.5-1.8-1.3-2.2-2.5c-0.4-0.9-0.4-2-0.1-3.1c0.6-2.4,2-3.7,2.8-4.4c0.9-0.6,2.8-1.5,4.2-1c1.2,0.4,1.9,1.3,2,2L111.9,18.9
			 M109.9,24.4c0.7-1.1,1.5-3.5,1.4-4.9c-0.1-1-0.5-1.5-1.7-1.9c-0.7-0.2-1.8-0.1-2.7,0.4c-1,0.7-1.7,1.5-2.1,3
			c-0.3,1-0.8,2.6,0.4,4.1c0.9,1.2,2.1,1.2,2.7,1C108.6,25.9,109.4,25.2,109.9,24.4"/>
		<path class="st2" d="M76.8,18.4c0.4-1.5,1.3-2.6,3-2.5h0.6v4c-0.3-0.1-0.5-0.2-0.8-0.2c-0.7,0-1.4,0.2-1.8,0.8
			c-0.3,0.5-0.3,1.3-0.3,1.9v4.9h-4.3V16.2h3.7L76.8,18.4 M70.9,27.3h-4.1v-1.8c-0.4,1.4-1.9,2-3.4,2c-0.9,0-1.8-0.2-2.5-0.8
			C60,25.9,60,24.9,60,23.9v-7.7h4.3v6.7c0,0.7,0,1.5,1,1.5c0.4,0,0.9-0.2,1-0.6c0.2-0.4,0.2-0.8,0.2-1.2v-6.4h4.3L70.9,27.3
			L70.9,27.3z M51.7,20.4v2.5c0,0.9,0.1,1.9,1.3,1.9c1.5-0.1,1.4-2,1.4-3.1c0-1,0.1-2.9-1.3-3.1c-0.5,0-0.8,0.2-1.1,0.5
			C51.6,19.6,51.7,19.9,51.7,20.4 M53,16.3c0.4-0.2,1-0.3,1.6-0.3c3.1,0,4.2,3,4.2,5.7c0,3.1-1.3,5.9-4.8,5.9c-0.4,0-0.7,0-1-0.1
			c-1-0.1-1.9-0.7-2.6-1.6c-0.3,0.4-0.4,1-0.6,1.5h-2.5v-15h4.3v5.2C52.1,16.9,52.5,16.5,53,16.3 M28.6,16.2h4v1.5
			c0.7-1.1,1.8-1.7,3-1.7c1.4,0,2.5,0.5,3.1,1.7c0.8-1.3,1.9-1.7,3.4-1.7c1,0,1.9,0.3,2.6,1c0.8,0.8,0.8,1.9,0.8,3.1v7.3h-4.3v-6.7
			c0-0.7,0.1-1.5-0.9-1.5c-1.3,0-1.2,1.1-1.2,2v6.2h-4.3v-6.7c0-0.7,0-1.6-0.9-1.6c-1,0-1.1,0.7-1.1,1.6v6.7h-4.3V16.2H28.6z
			 M21.3,20.1c0.4,0,0.9-0.1,1.3-0.1c0-1.1-0.2-1.5-1.3-1.5c-0.9,0-1.6,0.3-1.7,1.3l-4-0.4c0.6-2.8,3.1-3.5,5.6-3.5h0.2
			c1.3,0,3,0.1,4,1c1.5,1,1.3,2.5,1.3,4v4c0,0.8,0,1.6,0.3,2.4h-4.2c-0.1-0.4-0.1-1-0.1-1.5c-0.4,0.6-1,1-1.6,1.3s-1.3,0.4-2.1,0.4
			c-2.1,0-3.9-1.1-3.9-3.4c0-1.8,1.4-2.9,2.9-3.4C19.3,20.4,20.3,20.3,21.3,20.1 M21.3,24.9c1.3-0.2,1.3-1.4,1.3-2.6v-0.2
			c-0.4,0.1-0.9,0.1-1.3,0.3c-0.7,0.2-1.4,0.7-1.4,1.5c0,0.7,0.4,1,1.1,1C21,24.9,21.3,24.9,21.3,24.9z M13.9,12.3v15H9.3v-5.8H5.8
			v5.8H1.2v-15h4.6v5.6h3.5v-5.6C9.3,12.3,13.9,12.3,13.9,12.3z M86.9,29h0.3c0.7,0,2.3,0.1,2.3-0.9c0-0.7-0.7-0.7-1.3-0.7h-1.3
			L86,27.2h-0.8c-0.5,0-1,0-1,0.7c0,0.5,0.4,0.7,0.8,0.8C85.6,28.9,86.3,28.9,86.9,29 M86.9,20.8c0.9,0,1.3-0.5,1.3-1.3
			s-0.4-1.3-1.3-1.3s-1.3,0.5-1.3,1.3C85.5,20.4,86,20.8,86.9,20.8 M86.2,23.9l0.7,0.1l2.4,0.1c1,0.1,2,0.1,2.8,0.7
			c0.9,0.7,1.3,1.7,1.3,2.8c0,1.6-1,2.5-2.5,3.1c-1.1,0.4-2.7,0.4-4,0.4h-0.3c-1.9,0-6.1-0.2-6.1-2.8c0-1,0.6-1.8,1.6-2.2
			c-0.7-0.4-1-1-1-1.7c0-1.3,1-2.1,2.2-2.5c-1.2-0.5-1.9-1.3-1.9-2.5c0-2.9,3.1-3.5,5.5-3.5c0.7,0,1.4,0,2.1,0.2
			c0.3-1.6,1-2.7,2.8-2.7l1.5,0.1l-0.1,3l-1-0.1c-0.5,0-1.1,0.1-1.3,0.4c0.7,0.6,1.3,1.5,1.3,2.5c0,2.8-2.9,3.4-5.2,3.4h-1
			c-0.4,0-1,0-1,0.5C85,24,85.8,23.9,86.2,23.9"/>
		<path class="st2" d="M146.4,16.8h1.4v2.5c0.6-1.4,1.5-2.7,3.2-2.7l0.6,0.1v1.5h-0.3c-1.3,0-2.1,0.6-2.7,1.6
			c-0.4,0.8-0.5,1.4-0.5,2.2v5.3h-1.6L146.4,16.8"/>
		<polygon class="st2" points="134.4,16.8 131.4,27.3 130.1,27.3 127.8,19.5 125.7,27.3 124.3,27.3 121.2,16.8 122.8,16.8 
			125.1,24.6 127.3,16.8 128.5,16.8 130.8,24.6 133.1,16.8 		"/>
		<path class="st2" d="M140,27.5c-3.3,0-4.7-2.7-4.7-5.5c0-2.9,1.6-5.3,4.7-5.4c3.2,0,4.7,2.7,4.7,5.4
			C144.6,24.9,143.1,27.4,140,27.5 M140,17.9c-1,0-1.9,0.6-2.4,1.5c-0.4,0.8-0.5,1.8-0.5,2.6c0,0.9,0.2,2.1,0.6,2.9
			c0.5,0.7,1.4,1.3,2.3,1.3c1.1,0,1.9-0.6,2.4-1.5c0.5-0.8,0.6-1.8,0.6-2.7c0-1-0.2-2-0.7-2.9C141.8,18.4,140.9,17.9,140,17.9"/>
		<polygon class="st2" points="161.6,27.3 159.9,27.3 156.9,21.5 154.7,24 154.7,27.3 153.1,27.3 153.1,13.7 154.7,13.7 154.7,22.2 
			159.5,16.9 161.2,16.9 158,20.6 		"/>
		<polygon class="st3" points="173.5,0.8 173.5,12.7 167.5,12.7 167.5,6.8 161.5,6.8 161.5,0.8 		"/>
	</g>
	<g class="st1">
		<path class="st3" d="M0.1,37.6h6.1v1.5H4.1v7.4H2.2v-7.4H0.1V37.6z"/>
		<path class="st3" d="M7.5,37.6h1.7v3.2C9.5,40.3,10,40,10.7,40c0.4,0,0.8,0.1,1.1,0.4c0.3,0.2,0.5,0.6,0.5,1v5h-1.7v-4.3
			c0-0.7-0.2-1-0.7-1c-0.4,0-0.7,0.3-0.7,1v4.4H7.5V37.6z"/>
		<path class="st3" d="M15.5,43.6c0,0.6,0.1,1.1,0.2,1.4c0.1,0.3,0.3,0.5,0.7,0.5c0.5,0,0.8-0.4,0.8-1.1h1.7c0,0.6-0.2,1.2-0.6,1.6
			c-0.4,0.4-1,0.6-1.8,0.6c-0.9,0-1.6-0.2-2-0.7s-0.6-1.2-0.6-2.2v-0.5c0-1.3,0.2-2.1,0.6-2.5c0.4-0.4,1.1-0.6,1.9-0.6
			c0.9,0,1.5,0.2,1.9,0.7c0.4,0.4,0.6,1.2,0.6,2.2v0.4c0,0.1,0,0.2,0,0.3h-3.4V43.6z M15.5,42.6h1.6c0-0.6-0.1-1.1-0.2-1.2
			c-0.1-0.2-0.3-0.3-0.6-0.3c-0.3,0-0.5,0.1-0.7,0.3C15.5,41.7,15.5,42.1,15.5,42.6z"/>
		<path class="st3" d="M24.1,37.6h2.5l2.4,6.1v-6.1h1.7v8.9h-2.4L25.8,40v6.4h-1.7C24.1,46.4,24.1,37.6,24.1,37.6z"/>
		<path class="st3" d="M33.8,43.6c0,0.6,0.1,1.1,0.2,1.4c0.1,0.3,0.3,0.5,0.7,0.5c0.5,0,0.8-0.4,0.8-1.1h1.7c0,0.6-0.2,1.2-0.6,1.6
			c-0.4,0.4-1,0.6-1.8,0.6c-0.9,0-1.6-0.2-2-0.7s-0.6-1.2-0.6-2.2v-0.5c0-1.3,0.2-2.1,0.6-2.5c0.4-0.4,1.1-0.6,1.9-0.6
			c0.9,0,1.5,0.2,1.9,0.7c0.4,0.4,0.6,1.2,0.6,2.2v0.4c0,0.1,0,0.2,0,0.3h-3.4V43.6z M33.8,42.6h1.6c0-0.6-0.1-1.1-0.2-1.2
			c-0.1-0.2-0.3-0.3-0.6-0.3s-0.5,0.1-0.7,0.3C33.8,41.7,33.8,42.1,33.8,42.6z"/>
		<path class="st3" d="M38.2,41.3v-1.1h0.7v-1l1.7-0.8v1.7h0.9v1.1h-0.9v3.5c0,0.3,0,0.5,0.1,0.6s0.2,0.2,0.5,0.2c0.1,0,0.2,0,0.3,0
			v1c-0.3,0-0.6,0.1-0.8,0.1c-1.2,0-1.7-0.5-1.7-1.4v-3.9C39,41.3,38.2,41.3,38.2,41.3z"/>
		<path class="st3" d="M42.5,40.2h1.7l0.8,4.7l1.2-4.7H48l1.1,4.7l1-4.7h1.7l-1.7,6.3h-1.8l-1.1-4.3l-1.3,4.3h-1.8L42.5,40.2z"/>
		<path class="st3" d="M52.9,43.2c0-1.3,0.2-2.1,0.6-2.5c0.4-0.4,1.1-0.6,1.9-0.6c0.8,0,1.5,0.2,1.9,0.6c0.4,0.4,0.6,1.3,0.6,2.5
			c0,1.3-0.2,2.2-0.6,2.7c-0.4,0.4-1.1,0.7-1.9,0.7c-0.9,0-1.6-0.2-2-0.7s-0.6-1.2-0.6-2.2L52.9,43.2L52.9,43.2z M54.6,43.2
			c0,0.9,0.1,1.6,0.2,1.9c0.1,0.3,0.3,0.4,0.7,0.4c0.3,0,0.5-0.2,0.6-0.5s0.2-0.9,0.2-1.8c0-0.9-0.1-1.4-0.2-1.7
			c-0.1-0.3-0.3-0.4-0.6-0.4s-0.6,0.1-0.7,0.4c-0.1,0.3-0.2,0.7-0.2,1.2V43.2z"/>
		<path class="st3" d="M59.6,46.4v-6.3h1.7V41c0.3-0.6,0.8-1,1.5-1v1.6c-0.1,0-0.2,0-0.2,0c-0.4,0-0.8,0.1-1,0.3s-0.3,0.6-0.3,1.1
			v3.5L59.6,46.4L59.6,46.4z"/>
		<path class="st3" d="M65.9,42.9l1.6-2.7h1.8L67.6,43l1.9,3.5h-2L65.9,42.9v3.5h-1.7v-8.9h1.7V42.9z"/>
		<path class="st3" d="M73.6,40.2h0.8v-1.1c0-0.6,0.1-1,0.4-1.2s0.8-0.4,1.6-0.4c0.2,0,0.4,0,0.6,0v1.1c-0.1,0-0.1,0-0.2,0
			c-0.3,0-0.5,0.1-0.5,0.2c-0.1,0.1-0.1,0.3-0.1,0.6v0.7H77v1.1h-0.8v5.2h-1.7v-5.2h-0.8v-1H73.6z"/>
		<path class="st3" d="M78,43.2c0-1.3,0.2-2.1,0.6-2.5s1.1-0.6,1.9-0.6s1.5,0.2,1.9,0.6c0.4,0.4,0.6,1.3,0.6,2.5
			c0,1.3-0.2,2.2-0.6,2.7c-0.4,0.4-1.1,0.7-1.9,0.7c-0.9,0-1.6-0.2-2-0.7s-0.6-1.2-0.6-2.2L78,43.2L78,43.2z M79.7,43.2
			c0,0.9,0.1,1.6,0.2,1.9c0.1,0.3,0.3,0.4,0.7,0.4c0.3,0,0.5-0.2,0.6-0.5s0.2-0.9,0.2-1.8c0-0.9-0.1-1.4-0.2-1.7s-0.3-0.4-0.6-0.4
			c-0.3,0-0.6,0.1-0.7,0.4c-0.1,0.3-0.2,0.7-0.2,1.2V43.2z"/>
		<path class="st3" d="M84.5,46.4v-6.3h1.7V41c0.3-0.6,0.8-1,1.5-1v1.6c-0.1,0-0.2,0-0.2,0c-0.4,0-0.8,0.1-1,0.3s-0.3,0.6-0.3,1.1
			v3.5L84.5,46.4L84.5,46.4z"/>
		<path class="st3" d="M92.5,42c0-1.3,0.8-1.9,2.3-1.9c0.9,0,1.5,0.2,1.9,0.5s0.6,0.8,0.6,1.6v3.2c0,0.4,0,0.8,0.1,1.1h-1.6
			l-0.1-0.9c-0.4,0.7-0.9,1-1.6,1c-1.1,0-1.7-0.7-1.7-2c0-0.8,0.2-1.3,0.6-1.6s1.1-0.5,2.2-0.5h0.4V42c0-0.3,0-0.5-0.1-0.7
			s-0.3-0.2-0.5-0.2c-0.3,0-0.4,0.1-0.5,0.2c-0.1,0.2-0.1,0.4-0.1,0.7C94.4,42,92.5,42,92.5,42z M95.5,43.4c-0.6,0-1,0.1-1.2,0.2
			C94.1,43.7,94,44,94,44.4c0,0.7,0.2,1,0.7,1s0.8-0.4,0.8-1.3V43.4z"/>
		<path class="st3" d="M102.7,37.6h2.5l2.4,6.1v-6.1h1.7v8.9h-2.4l-2.5-6.4v6.4h-1.7V37.6z"/>
		<path class="st3" d="M112.7,43.6c0,0.6,0.1,1.1,0.2,1.4c0.1,0.3,0.3,0.5,0.7,0.5c0.5,0,0.8-0.4,0.8-1.1h1.7c0,0.6-0.2,1.2-0.6,1.6
			c-0.4,0.4-1,0.6-1.8,0.6c-0.9,0-1.6-0.2-2-0.7s-0.6-1.2-0.6-2.2v-0.5c0-1.3,0.2-2.1,0.6-2.5s1.1-0.6,1.9-0.6
			c0.9,0,1.5,0.2,1.9,0.7c0.4,0.4,0.6,1.2,0.6,2.2v0.4c0,0.1,0,0.2,0,0.3h-3.4V43.6z M112.7,42.6h1.6c0-0.6-0.1-1.1-0.2-1.2
			c-0.1-0.2-0.3-0.3-0.6-0.3c-0.3,0-0.5,0.1-0.7,0.3C112.7,41.7,112.7,42.1,112.7,42.6z"/>
		<path class="st3" d="M117.1,40.2h1.7l0.8,4.7l1.2-4.7h1.8l1.1,4.7l1-4.7h1.7l-1.7,6.3h-1.8l-1.1-4.3l-1.3,4.3h-1.8L117.1,40.2z"/>
		<path class="st3" d="M130.4,37.6h1.9l1.1,6.3l1.4-6.3h2.2l1.3,6.3l1.1-6.3h1.8l-1.9,8.9h-2.1l-1.4-6.5l-1.5,6.5h-2L130.4,37.6z"/>
		<path class="st3" d="M141.9,43.2c0-1.3,0.2-2.1,0.6-2.5c0.4-0.4,1.1-0.6,1.9-0.6c0.8,0,1.5,0.2,1.9,0.6c0.4,0.4,0.6,1.3,0.6,2.5
			c0,1.3-0.2,2.2-0.6,2.7c-0.4,0.4-1.1,0.7-1.9,0.7c-0.9,0-1.6-0.2-2-0.7s-0.6-1.2-0.6-2.2v-0.5H141.9z M143.7,43.2
			c0,0.9,0.1,1.6,0.2,1.9c0.1,0.3,0.3,0.4,0.7,0.4c0.3,0,0.5-0.2,0.6-0.5s0.2-0.9,0.2-1.8c0-0.9-0.1-1.4-0.2-1.7
			c-0.1-0.3-0.3-0.4-0.6-0.4s-0.6,0.1-0.7,0.4c-0.1,0.3-0.2,0.7-0.2,1.2V43.2z"/>
		<path class="st3" d="M148.6,46.4v-6.3h1.7V41c0.3-0.6,0.8-1,1.5-1v1.6c-0.1,0-0.2,0-0.2,0c-0.4,0-0.8,0.1-1,0.3s-0.3,0.6-0.3,1.1
			v3.5L148.6,46.4L148.6,46.4z"/>
		<path class="st3" d="M153.6,46.4v-8.9h1.7v8.9H153.6z"/>
		<path class="st3" d="M160.1,40.8v-3.2h1.7v8.9h-1.6v-0.7c-0.3,0.6-0.8,0.9-1.5,0.9c-0.6,0-1-0.2-1.3-0.6s-0.5-1.1-0.5-2.1v-0.6
			v-0.6c0-0.8,0.1-1.5,0.4-1.9c0.3-0.4,0.7-0.7,1.3-0.7C159.2,40.1,159.7,40.3,160.1,40.8z M158.6,43.1c0,0.9,0,1.6,0.1,1.9
			c0.1,0.3,0.3,0.5,0.6,0.5c0.4,0,0.6-0.3,0.7-1c0-0.2,0-0.7,0-1.4v-0.6c0-0.5-0.1-0.9-0.2-1.1c-0.1-0.2-0.3-0.3-0.5-0.3
			c-0.3,0-0.5,0.1-0.6,0.4c-0.1,0.2-0.2,0.6-0.2,1L158.6,43.1L158.6,43.1z"/>
	</g>
	<g class="st1">
		<path class="st2" d="M83.4,59.6v-5.8h2c0.7,0,1.2,0.2,1.5,0.6c0.3,0.4,0.4,1.2,0.4,2.4c0,0.5,0,0.9-0.1,1.2c0,0.3-0.1,0.6-0.3,0.8
			c-0.1,0.2-0.3,0.4-0.5,0.5c-0.3,0.2-0.6,0.2-1,0.2L83.4,59.6L83.4,59.6z M84.6,58.7h0.6c0.3,0,0.5-0.1,0.7-0.4
			c0.1-0.2,0.2-0.8,0.2-1.8c0-0.7-0.1-1.2-0.2-1.5c-0.1-0.2-0.3-0.4-0.6-0.4h-0.6L84.6,58.7L84.6,58.7z"/>
		<path class="st2" d="M88.5,53.9h1.1v0.9h-1.1V53.9z M88.5,55.6h1.1v4.1h-1.1V55.6z"/>
		<path class="st2" d="M90.6,60h1.1c0,0.4,0.1,0.6,0.4,0.6s0.4-0.2,0.4-0.7v-0.8c-0.2,0.3-0.5,0.5-0.9,0.5s-0.7-0.1-0.9-0.4
			c-0.2-0.3-0.3-0.7-0.3-1.4v-0.2v-0.4c0-0.6,0.1-1.1,0.3-1.4c0.2-0.3,0.5-0.4,0.8-0.4c0.5,0,0.8,0.2,1,0.6v-0.5h1.1v4.3
			c0,0.9-0.5,1.4-1.6,1.4C91.2,61.2,90.6,60.8,90.6,60z M91.7,57.9c0,0.3,0,0.6,0.1,0.7c0.1,0.1,0.2,0.2,0.4,0.2
			c0.2,0,0.3-0.1,0.3-0.2c0.1-0.2,0.1-0.5,0.1-0.9v-0.3c0-0.5,0-0.9-0.1-1c-0.1-0.2-0.2-0.2-0.3-0.2c-0.2,0-0.3,0.1-0.4,0.3
			s-0.1,0.4-0.1,0.7V57.9L91.7,57.9z"/>
		<path class="st2" d="M94.9,53.9H96v0.9h-1.1V53.9z M94.9,55.6H96v4.1h-1.1V55.6z"/>
		<path class="st2" d="M96.9,56.3v-0.7h0.5V55l1.1-0.5v1.1H99v0.7h-0.6v2.3c0,0.2,0,0.3,0.1,0.4s0.2,0.1,0.3,0.1c0.1,0,0.1,0,0.2,0
			v0.7c-0.2,0-0.4,0-0.6,0c-0.8,0-1.1-0.3-1.1-0.9v-2.5L96.9,56.3L96.9,56.3z"/>
		<path class="st2" d="M99.9,56.7c0-0.8,0.5-1.2,1.5-1.2c0.6,0,1,0.1,1.2,0.3s0.4,0.5,0.4,1v2.1c0,0.2,0,0.5,0.1,0.7H102l-0.1-0.6
			c-0.2,0.4-0.6,0.6-1.1,0.6c-0.7,0-1.1-0.4-1.1-1.3c0-0.5,0.1-0.9,0.4-1.1c0.3-0.2,0.7-0.3,1.4-0.3h0.2v-0.3c0-0.2,0-0.3-0.1-0.4
			c-0.1-0.1-0.2-0.1-0.3-0.1c-0.2,0-0.3,0.1-0.3,0.2c-0.1,0.1-0.1,0.3-0.1,0.5h-1V56.7z M101.9,57.6c-0.4,0-0.6,0-0.8,0.1
			c-0.1,0.1-0.2,0.3-0.2,0.6c0,0.4,0.1,0.7,0.4,0.7s0.5-0.3,0.5-0.8L101.9,57.6L101.9,57.6z"/>
		<path class="st2" d="M104.1,59.6v-5.8h1.1v5.8H104.1z"/>
		<path class="st2" d="M108.9,57.6h1.2c0,0.7-0.1,1.3-0.4,1.6s-0.7,0.5-1.3,0.5c-0.7,0-1.2-0.2-1.5-0.5c-0.3-0.4-0.5-1-0.5-1.8v-0.6
			v-0.5c0-0.9,0.2-1.5,0.5-1.9s0.8-0.6,1.5-0.6c0.5,0,1,0.1,1.2,0.4c0.3,0.3,0.4,0.8,0.4,1.5h-1.2c0-0.3,0-0.6-0.1-0.8
			s-0.2-0.3-0.4-0.3l0,0c-0.3,0-0.4,0.1-0.5,0.4c-0.1,0.3-0.2,0.8-0.2,1.7V57c0,0.7,0.1,1.2,0.2,1.4c0.1,0.3,0.3,0.4,0.6,0.4h0.1
			C108.7,58.8,108.9,58.4,108.9,57.6z"/>
		<path class="st2" d="M111,59.6v-5.8h1.1v5.8H111z"/>
		<path class="st2" d="M113.3,55.6h1.1v2.8c0,0.4,0.1,0.6,0.4,0.6s0.4-0.2,0.4-0.6v-2.8h1.1v3.3c0,0.3,0,0.5,0,0.8h-1.2v-0.4
			c-0.2,0.3-0.5,0.5-1,0.5c-0.3,0-0.5-0.1-0.7-0.2c-0.2-0.2-0.3-0.4-0.3-0.7v-3.3H113.3z"/>
		<path class="st2" d="M118.3,58.3v0.2c0,0.2,0,0.3,0.1,0.4c0.1,0.1,0.2,0.1,0.4,0.1c0.1,0,0.2,0,0.3-0.1c0.1-0.1,0.1-0.2,0.1-0.3
			s0-0.2-0.1-0.3s-0.3-0.2-0.7-0.4l-0.2-0.1c-0.3-0.1-0.5-0.3-0.7-0.5s-0.3-0.4-0.3-0.6c0-0.4,0.1-0.7,0.4-0.9s0.7-0.3,1.2-0.3
			c0.4,0,0.8,0.1,1,0.3c0.3,0.2,0.4,0.5,0.4,0.8v0.1h-1.1c0-0.3,0-0.4-0.1-0.5s-0.2-0.1-0.3-0.1c-0.1,0-0.2,0-0.3,0.1
			c-0.1,0.1-0.1,0.2-0.1,0.3s0,0.2,0.1,0.3s0.3,0.2,0.5,0.3l0.3,0.1c0.4,0.2,0.7,0.4,0.8,0.6c0.2,0.2,0.2,0.4,0.2,0.7
			c0,0.4-0.1,0.7-0.4,0.9s-0.7,0.3-1.1,0.3c-0.6,0-1-0.1-1.2-0.3s-0.4-0.5-0.4-0.9v-0.2C117.1,58.3,118.3,58.3,118.3,58.3z"/>
		<path class="st2" d="M120.8,56.3v-0.7h0.5V55l1.1-0.5v1.1h0.6v0.7h-0.6v2.3c0,0.2,0,0.3,0.1,0.4c0,0.1,0.2,0.1,0.3,0.1
			c0.1,0,0.1,0,0.2,0v0.7c-0.2,0-0.4,0-0.6,0c-0.8,0-1.1-0.3-1.1-0.9v-2.5L120.8,56.3L120.8,56.3z"/>
		<path class="st2" d="M124.6,57.8c0,0.4,0,0.7,0.1,0.9s0.2,0.3,0.4,0.3c0.3,0,0.5-0.2,0.5-0.7h1.1c0,0.4-0.1,0.8-0.4,1
			c-0.3,0.3-0.7,0.4-1.2,0.4c-0.6,0-1-0.1-1.3-0.4c-0.3-0.3-0.4-0.8-0.4-1.4v-0.3c0-0.8,0.1-1.4,0.4-1.6c0.3-0.3,0.7-0.4,1.2-0.4
			c0.6,0,1,0.1,1.2,0.4c0.3,0.3,0.4,0.8,0.4,1.4v0.2c0,0.1,0,0.2,0,0.2S124.6,57.8,124.6,57.8z M124.6,57.1h1.1c0-0.4,0-0.7-0.1-0.8
			s-0.2-0.2-0.4-0.2c-0.2,0-0.3,0.1-0.4,0.2C124.7,56.5,124.6,56.8,124.6,57.1z"/>
		<path class="st2" d="M127.7,59.6v-4.1h1.1V56c0.2-0.4,0.5-0.6,1-0.6v1c-0.1,0-0.1,0-0.1,0c-0.3,0-0.5,0.1-0.6,0.2
			c-0.1,0.1-0.2,0.4-0.2,0.7v2.2L127.7,59.6L127.7,59.6z"/>
		<path class="st2" d="M130.5,58.6h1v1.1h-1V58.6z"/>
		<path class="st2" d="M132.6,53.9h1.2v2.3h1.4v-2.3h1.2v5.8h-1.2V57h-1.4v2.6h-1.2V53.9z"/>
		<path class="st2" d="M137.4,56.7c0-0.8,0.5-1.2,1.5-1.2c0.6,0,1,0.1,1.2,0.3s0.4,0.5,0.4,1v2.1c0,0.2,0,0.5,0.1,0.7h-1.1l-0.1-0.6
			c-0.2,0.4-0.6,0.6-1.1,0.6c-0.7,0-1.1-0.4-1.1-1.3c0-0.5,0.1-0.9,0.4-1.1c0.3-0.2,0.7-0.3,1.4-0.3h0.2v-0.3c0-0.2,0-0.3-0.1-0.4
			c-0.1-0.1-0.2-0.1-0.3-0.1c-0.2,0-0.3,0.1-0.3,0.2c-0.1,0.1-0.1,0.3-0.1,0.5h-1V56.7z M139.4,57.6c-0.4,0-0.6,0-0.8,0.1
			c-0.1,0.1-0.2,0.3-0.2,0.6c0,0.4,0.1,0.7,0.4,0.7c0.3,0,0.5-0.3,0.5-0.8v-0.6H139.4z"/>
		<path class="st2" d="M141.5,55.6h1.1V56c0.2-0.3,0.5-0.5,1-0.5c0.4,0,0.7,0.2,0.9,0.5c0.1-0.1,0.2-0.3,0.4-0.4
			c0.2-0.1,0.4-0.1,0.6-0.1c0.3,0,0.5,0.1,0.7,0.2c0.2,0.2,0.3,0.4,0.3,0.7v3.2h-1.1v-2.8c0-0.4-0.1-0.6-0.4-0.6
			c-0.3,0-0.4,0.2-0.4,0.6v2.8h-1.1v-2.8c0-0.4-0.1-0.6-0.4-0.6c-0.3,0-0.4,0.2-0.4,0.6v2.8h-1.1v-4H141.5z"/>
		<path class="st2" d="M147.5,59.6v-5.8h1.1V56c0.2-0.3,0.6-0.5,0.9-0.5c0.3,0,0.6,0.1,0.7,0.3c0.2,0.2,0.3,0.5,0.3,0.8
			c0,0.2,0,0.5,0,0.9l0,0v0.3c0,0.7-0.1,1.1-0.3,1.4c-0.2,0.3-0.5,0.4-0.8,0.4c-0.5,0-0.8-0.2-1-0.6v0.5L147.5,59.6L147.5,59.6z
			 M148.7,58c0,0.4,0,0.7,0.1,0.8s0.2,0.2,0.3,0.2c0.2,0,0.3-0.1,0.4-0.3c0.1-0.2,0.1-0.6,0.1-1.3v-0.2c0-0.4,0-0.7-0.1-0.9
			c-0.1-0.1-0.2-0.2-0.3-0.2l0,0c-0.2,0-0.3,0.1-0.4,0.2c-0.1,0.1-0.1,0.4-0.1,0.7v0.4V58z"/>
		<path class="st2" d="M151.7,55.6h1.1v2.8c0,0.4,0.1,0.6,0.4,0.6c0.3,0,0.4-0.2,0.4-0.6v-2.8h1.1v3.3c0,0.3,0,0.5,0,0.8h-1.2v-0.4
			c-0.2,0.3-0.5,0.5-1,0.5c-0.3,0-0.5-0.1-0.7-0.2c-0.2-0.2-0.3-0.4-0.3-0.7v-3.3H151.7z"/>
		<path class="st2" d="M155.8,59.6v-4.1h1.1V56c0.2-0.4,0.5-0.6,1-0.6v1c-0.1,0-0.1,0-0.1,0c-0.3,0-0.5,0.1-0.6,0.2
			c-0.1,0.1-0.2,0.4-0.2,0.7v2.2L155.8,59.6L155.8,59.6z"/>
		<path class="st2" d="M158.5,60h1.1c0,0.4,0.1,0.6,0.4,0.6c0.3,0,0.4-0.2,0.4-0.7v-0.8c-0.2,0.3-0.5,0.5-0.9,0.5s-0.7-0.1-0.9-0.4
			c-0.2-0.3-0.3-0.7-0.3-1.4v-0.2v-0.4c0-0.6,0.1-1.1,0.3-1.4c0.2-0.3,0.5-0.4,0.8-0.4c0.5,0,0.8,0.2,1,0.6v-0.5h1.1v4.3
			c0,0.9-0.5,1.4-1.6,1.4C159,61.2,158.5,60.8,158.5,60z M159.6,57.9c0,0.3,0,0.6,0.1,0.7c0.1,0.1,0.2,0.2,0.4,0.2s0.3-0.1,0.3-0.2
			c0.1-0.2,0.1-0.5,0.1-0.9v-0.3c0-0.5,0-0.9-0.1-1c-0.1-0.2-0.2-0.2-0.3-0.2c-0.2,0-0.3,0.1-0.4,0.3c-0.1,0.2-0.1,0.4-0.1,0.7V57.9
			L159.6,57.9z"/>
	</g>
</g>
<path class="st4" d="M28.9,20.1H36v1.8h-4.8v2.5h4.5v1.8h-4.5V29h5v1.8h-7.3V20.1z"/>
<path class="st4" d="M39.7,30.7h-2.4l3.7-5.5l-3.5-5.1h2.8l2.1,3.6l2.3-3.6h2.4l-3.5,5.1l3.7,5.5h-2.8l-2.4-4L39.7,30.7z"/>
<path class="st4" d="M48.8,20.1H56v1.8h-4.8v2.5h4.5v1.8h-4.5V29h5v1.8h-7.3V20.1z"/>
<path class="st4" d="M63.4,23.5c0-1.1-0.7-2-2-2c-1.6,0-2,2.4-2,3.9c0,1.5,0.4,3.9,2,3.9c1.4,0,2-0.9,2-2h2.4
	c-0.1,2.7-2,3.7-4.5,3.7c-3.1,0-4.5-2.4-4.5-5.5s1.4-5.5,4.5-5.5c2.4,0,4.4,1,4.5,3.7H63.4z"/>
<path class="st4" d="M76.2,20.1v6.7c0,2.8-2,4.2-4.6,4.2c-2.6,0-4.6-1.4-4.6-4.2v-6.7h2.3v5.8c0,1.8,0.1,3.4,2.3,3.4
	s2.3-1.6,2.3-3.4v-5.8H76.2z"/>
<path class="st4" d="M77.5,20.1h8.6v1.8H83v8.9h-2.3v-8.9h-3.2V20.1z"/>
<path class="st4" d="M89.8,30.7h-2.3V20.1h2.3V30.7z"/>
<path class="st4" d="M91.2,20.1h2.5l2.8,8.4h0l2.8-8.4h2.3l-3.9,10.6h-2.5L91.2,20.1z"/>
<path class="st4" d="M102.5,20.1h7.1v1.8h-4.8v2.5h4.5v1.8h-4.5V29h5v1.8h-7.3V20.1z"/>
<path class="st4" d="M35.4,36.2c0-1.1-0.7-2-2-2c-1.6,0-2,2.4-2,3.9c0,1.5,0.4,3.9,2,3.9c1.4,0,2-0.9,2-2h2.4
	c-0.1,2.7-2,3.7-4.5,3.7c-3.1,0-4.5-2.4-4.5-5.5c0-3.1,1.4-5.5,4.5-5.5c2.4,0,4.4,1,4.5,3.7H35.4z"/>
<path class="st4" d="M39.6,43.4V32.8h2.3v8.9h4.6v1.8H39.6z"/>
<path class="st4" d="M56.5,32.8v6.7c0,2.8-2,4.2-4.6,4.2c-2.6,0-4.6-1.4-4.6-4.2v-6.7h2.3v5.8c0,1.8,0.1,3.4,2.3,3.4
	c2.2,0,2.3-1.6,2.3-3.4v-5.8H56.5z"/>
<path class="st4" d="M58.3,43.4V32.8h4c1.9-0.1,3.8,0.7,3.8,2.8c0,1.2-0.8,2-1.9,2.3v0c1.3,0.3,2.3,1.2,2.3,2.8
	c0,2.1-2.6,2.9-4.3,2.8H58.3z M62.4,37c1,0,1.5-0.4,1.5-1.3c0-0.9-0.5-1.3-1.5-1.3h-1.8V37H62.4z M62.4,41.6c1.1,0,1.8-0.2,1.8-1.4
	c0-1.2-0.7-1.4-1.8-1.4h-1.8v2.8H62.4z"/>
<polygon class="st5" points="30.9,49.3 30.9,47.4 29,47.4 29,49.3 29,51.3 30.9,51.3 32.9,51.3 32.9,49.3 "/>
<path class="st4" d="M31.2,18h-2.3V7.3h2.3V18z"/>
<path class="st4" d="M32.6,7.3h8.6v1.8H38V18h-2.3V9.1h-3.2V7.3z"/>
<path class="st5" d="M23.1,26v13.1c0,2-0.5,3.9-1.5,5.6L5.5,35.8l-2-1.1v-13c0-2,0.6-4,1.6-5.7L21.2,25L23.1,26z"/>
<path class="st4" d="M23.1,4.4v19.6l-1.9,1L3.5,34.8v-13c0-2,0.6-4,1.6-5.7c1-1.7,2.4-3.1,4.2-4L23.1,4.4z"/>
<path class="st6" d="M5.1,16.1c-1,1.7-1.6,3.6-1.6,5.7v13L21.2,25L5.1,16.1z"/>
<path class="st7" d="M23.1,26.1v13c0,2-0.5,3.9-1.5,5.6c-1,1.7-2.4,3.1-4.2,4.1L3.5,56.5V36.9l2-1.1L23.1,26.1z"/>
<path class="st8" d="M21.5,44.7c1-1.7,1.5-3.6,1.5-5.6v-13L5.5,35.8L21.5,44.7z"/>
<path class="st4" d="M35.3,49.1c0.1-0.1,0.3-0.5,0.9-0.5c0.3,0,0.6,0.1,0.9,0.3c0.1,0.2,0.3,0.4,0.3,1c0,0.5-0.1,0.8-0.3,1
	c-0.2,0.3-0.6,0.5-1,0.5c-0.1,0-0.4,0-0.6-0.2c-0.2-0.1-0.2-0.2-0.3-0.3l0,0.4h-0.5l0-0.5v-3.4h0.5V49.1z M36.1,49
	c-0.8,0-0.8,0.9-0.8,1.1c0,0.2,0,1,0.8,1c0.6,0,0.8-0.6,0.8-1.1C36.8,49.7,36.8,49,36.1,49z"/>
<path class="st4" d="M39.1,51.4l-0.4,1h-0.5l0.4-1l-1.1-2.7h0.6l0.8,2.1l0.9-2.1h0.6L39.1,51.4z"/>
<path class="st4" d="M42.6,47.5v1.7h1.9v-1.7H45v3.9h-0.5v-1.8h-1.9v1.8H42v-3.9H42.6z"/>
<path class="st4" d="M47.4,51.4c0-0.1,0-0.3,0-0.4c-0.2,0.4-0.6,0.5-0.8,0.5c-0.6,0-1-0.4-1-0.8c0-0.2,0.1-0.6,0.5-0.8
	c0.3-0.2,0.7-0.2,0.9-0.2c0.1,0,0.2,0,0.4,0c0-0.3,0-0.5-0.1-0.6c-0.1-0.1-0.3-0.2-0.5-0.2c-0.5,0-0.5,0.4-0.5,0.5h-0.5
	c0-0.1,0-0.3,0.2-0.5c0.2-0.2,0.6-0.3,0.9-0.3c0.4,0,0.8,0.1,1,0.4c0.1,0.2,0.1,0.3,0.1,0.4l0,1.3c0,0,0,0.4,0,0.7H47.4z M47.1,50.1
	c-0.2,0-1,0-1,0.6c0,0.2,0.1,0.5,0.6,0.5c0.3,0,0.5-0.1,0.6-0.3c0.1-0.2,0.1-0.3,0.1-0.7C47.3,50.1,47.2,50.1,47.1,50.1z"/>
<path class="st4" d="M48.6,49l0-0.4h0.5v0.4c0.3-0.4,0.6-0.5,0.9-0.5c0.6,0,0.8,0.3,0.9,0.5c0.1-0.2,0.3-0.5,0.9-0.5
	c0.4,0,1,0.2,1,1v1.8h-0.5v-1.7c0-0.2,0-0.3-0.1-0.4C52,49.1,51.9,49,51.6,49c-0.3,0-0.5,0.2-0.6,0.3c-0.1,0.2-0.1,0.5-0.1,0.6v1.5
	h-0.5v-1.8c0-0.3-0.2-0.6-0.6-0.6c-0.3,0-0.5,0.2-0.6,0.3c-0.1,0.2-0.1,0.4-0.1,0.6v1.5h-0.5V49z"/>
<path class="st4" d="M54,49.1c0.1-0.1,0.3-0.5,0.9-0.5c0.3,0,0.6,0.1,0.9,0.3c0.1,0.2,0.3,0.4,0.3,1c0,0.5-0.1,0.8-0.3,1
	c-0.2,0.3-0.6,0.5-1,0.5c-0.1,0-0.4,0-0.6-0.2C54.1,51.2,54,51.1,54,51l0,0.4h-0.5l0-0.5v-3.4H54V49.1z M54.8,49
	C54,49,54,49.9,54,50c0,0.2,0,1,0.8,1c0.6,0,0.8-0.6,0.8-1.1C55.5,49.7,55.5,49,54.8,49z"/>
<path class="st4" d="M57.1,48.7v1.7c0,0.3,0.1,0.6,0.6,0.6c0.3,0,0.5-0.1,0.6-0.3c0.1-0.2,0.1-0.4,0.1-0.5v-1.5h0.5v2.2
	c0,0.1,0,0.4,0,0.5h-0.5l0-0.5c-0.1,0.2-0.3,0.5-0.9,0.5c-0.7,0-1-0.4-1-0.9v-1.8H57.1z"/>
<path class="st4" d="M59.7,49.2c0-0.2,0-0.4,0-0.6h0.5l0,0.5c0.1-0.4,0.4-0.5,0.6-0.5c0.2,0,0.3,0,0.4,0v0.5c0,0-0.1,0-0.1,0
	c0,0-0.1,0-0.1,0c-0.6,0-0.7,0.4-0.7,0.8v1.4h-0.5V49.2z"/>
<path class="st4" d="M62.1,51.6c0,0.3,0.2,0.5,0.6,0.5c0.7,0,0.7-0.5,0.7-1.2c-0.2,0.4-0.7,0.5-0.9,0.5c-0.2,0-0.6-0.1-0.8-0.3
	c-0.2-0.3-0.3-0.6-0.3-1c0-0.9,0.5-1.4,1.2-1.4c0.5,0,0.7,0.3,0.9,0.4l0-0.4H64l0,0.5l0,1.7c0,0.7,0,0.9-0.1,1.1
	c-0.2,0.4-0.8,0.5-1.1,0.5c-1.1,0-1.1-0.5-1.1-0.9H62.1z M63.3,50.7c0.1-0.1,0.2-0.3,0.2-0.8c0-0.3-0.1-0.5-0.2-0.7
	c-0.1-0.1-0.4-0.2-0.6-0.2C62,49,62,49.7,62,50c0,0.4,0.1,1,0.7,1C63,51,63.2,50.9,63.3,50.7z"/>
<path class="st4" d="M68,49.1l-0.3,1.1c0,0.1-0.1,0.3-0.1,0.4c0,0.2,0.2,0.2,0.2,0.2c0.3,0,0.8-0.5,0.8-1.2c0-0.9-0.7-1.4-1.6-1.4
	c-1,0-1.9,0.7-1.9,1.9c0,1.1,0.8,1.7,1.8,1.7c0.6,0,1.1-0.2,1.5-0.5l0.1,0.2c-0.5,0.3-1,0.6-1.6,0.6c-1.2,0-2.1-0.8-2.1-2
	c0-1.4,1.1-2.1,2.2-2.1c0.9,0,1.8,0.5,1.8,1.6c0,0.9-0.6,1.4-1.1,1.4c-0.2,0-0.4-0.1-0.4-0.4c0-0.1,0-0.1,0-0.2
	c-0.1,0.1-0.3,0.5-0.8,0.5c-0.4,0-0.7-0.3-0.7-0.8c0-0.6,0.4-1.3,1.1-1.3c0.2,0,0.4,0,0.5,0.2c0.1,0.1,0.1,0.2,0.1,0.2l0.1-0.3H68z
	 M66.9,49.3c-0.4,0-0.7,0.6-0.7,1c0,0.3,0.1,0.5,0.4,0.5c0.5,0,0.7-0.9,0.7-1.1C67.3,49.4,67.1,49.3,66.9,49.3z"/>
<path class="st4" d="M70.1,48.7l0.7,2.2l0.7-2.2h0.7l0.6,2.1l0.7-2.1h0.5l-1,2.7h-0.6l-0.6-2.2L71,51.4h-0.6l-0.9-2.7H70.1z"/>
<path class="st4" d="M75.4,48.6c1.1,0,1.3,0.9,1.3,1.4c0,0.8-0.4,1.5-1.4,1.5c-0.9,0-1.3-0.6-1.3-1.4C74.1,49.4,74.4,48.6,75.4,48.6
	z M75.4,51.1c0.4,0,0.8-0.3,0.8-1.1c0-0.7-0.3-1-0.8-1c-0.3,0-0.8,0.2-0.8,1.1C74.6,50.6,74.8,51.1,75.4,51.1z"/>
<path class="st4" d="M77.4,49.2c0-0.2,0-0.4,0-0.6h0.5l0,0.5c0.1-0.4,0.4-0.5,0.6-0.5c0.2,0,0.3,0,0.4,0v0.5c0,0-0.1,0-0.1,0
	c0,0-0.1,0-0.1,0c-0.6,0-0.7,0.4-0.7,0.8v1.4h-0.5V49.2z"/>
<path class="st4" d="M79.2,47.5h0.5v2.3l1-1.1h0.7l-1.1,1.2l1.2,1.6h-0.7l-1.1-1.5v1.5h-0.5V47.5z"/>
<path class="st4" d="M83.4,50.1c0,0.6,0.2,1,0.8,1c0.3,0,0.6-0.2,0.6-0.6h0.5c0,0.1,0,0.4-0.2,0.6c-0.1,0.1-0.4,0.4-0.9,0.4
	c-0.9,0-1.3-0.5-1.3-1.4c0-0.5,0.1-1,0.5-1.3c0.3-0.2,0.6-0.2,0.7-0.2c1.2,0,1.2,1.1,1.2,1.5H83.4z M84.9,49.8c0-0.3,0-0.8-0.7-0.8
	c-0.3,0-0.7,0.2-0.7,0.8H84.9z"/>
<path class="st4" d="M85.9,50.7h0.6v0.6h-0.6V50.7z"/>
<path class="st4" d="M88.5,51.4h-0.6l-1.4-3.9h0.6l1.1,3.3l1.2-3.3h0.5L88.5,51.4z"/>
<path class="st4" d="M89.8,50.7h0.6v0.6h-0.6V50.7z"/>
</svg>
