<?xml version="1.0" encoding="UTF-8"?>
<svg width="65px" height="56px" viewBox="0 0 65 56" version="1.1" xmlns="http://www.w3.org/2000/svg" xmlns:xlink="http://www.w3.org/1999/xlink">
    <!-- Generator: Sketch 54.1 (76490) - https://sketchapp.com -->
    <title>Combined Shape</title>
    <desc>Created with Sketch.</desc>
    <g id="Page-1" stroke="none" stroke-width="1" fill="none" fill-rule="evenodd">
        <g id="Desktop-HD-Copy" transform="translate(-1249.000000, -1764.000000)" fill="#FFB399">
            <path d="M1249,1764 L1278.73633,1764 L1278.73633,1786.90039 C1278.73633,1795.33142 1276.98179,1801.99639 1273.47266,1806.89551 C1269.96352,1811.79462 1263.97075,1816.08983 1255.49414,1819.78125 L1249,1807.61328 C1254.28648,1805.15233 1257.92089,1802.70281 1259.90332,1800.26465 C1261.88575,1797.82649 1262.99088,1794.94403 1263.21875,1791.61719 L1249,1791.61719 L1249,1764 Z M1283.6582,1764 L1313.39453,1764 L1313.39453,1786.90039 C1313.39453,1795.33142 1311.63999,1801.99639 1308.13086,1806.89551 C1304.62173,1811.79462 1298.62895,1816.08983 1290.15234,1819.78125 L1283.6582,1807.61328 C1288.94469,1805.15233 1292.57909,1802.70281 1294.56152,1800.26465 C1296.54396,1797.82649 1297.64909,1794.94403 1297.87695,1791.61719 L1283.6582,1791.61719 L1283.6582,1764 Z" id="Combined-Shape"></path>
        </g>
    </g>
</svg>