<?xml version="1.0" encoding="UTF-8"?>
<svg width="65px" height="56px" viewBox="0 0 65 56" version="1.1" xmlns="http://www.w3.org/2000/svg" xmlns:xlink="http://www.w3.org/1999/xlink">
    <!-- Generator: Sketch 54.1 (76490) - https://sketchapp.com -->
    <title>“”</title>
    <desc>Created with Sketch.</desc>
    <g id="Page-1" stroke="none" stroke-width="1" fill="none" fill-rule="evenodd">
        <g id="Desktop-HD-Copy" transform="translate(-624.000000, -1532.000000)" fill="#FFB399" fill-rule="nonzero">
            <path d="M653.736328,1587.78125 L624,1587.78125 L624,1564.88086 C624,1556.44983 625.75454,1549.79625 629.263672,1544.91992 C632.772804,1540.0436 638.788369,1535.737 647.310547,1532 L653.736328,1544.16797 C648.495417,1546.62892 644.872406,1549.07844 642.867188,1551.5166 C640.861969,1553.95476 639.745444,1556.83722 639.517578,1560.16406 L653.736328,1560.16406 L653.736328,1587.78125 Z M688.394531,1587.78125 L658.658203,1587.78125 L658.658203,1564.88086 C658.658203,1556.44983 660.412743,1549.79625 663.921875,1544.91992 C667.431007,1540.0436 673.446572,1535.737 681.96875,1532 L688.394531,1544.16797 C683.15362,1546.62892 679.530609,1549.07844 677.525391,1551.5166 C675.520172,1553.95476 674.403647,1556.83722 674.175781,1560.16406 L688.394531,1560.16406 L688.394531,1587.78125 Z" id="“”"></path>
        </g>
    </g>
</svg>